<svg width="32" height="32" viewBox="0 0 32 32" fill="none" xmlns="http://www.w3.org/2000/svg">
<path d="M13.1191 3.71204C12.6921 3.71205 12.2736 3.83069 11.9102 4.05472C11.5467 4.27875 11.2527 4.59936 11.0608 4.98077L10.1546 6.78404H7.55875C6.54032 6.78404 5.5636 7.18861 4.84346 7.90875C4.12332 8.62889 3.71875 9.6056 3.71875 10.624V22.912C3.71875 23.9305 4.12332 24.9072 4.84346 25.6273C5.5636 26.3475 6.54032 26.752 7.55875 26.752H15.3862C15.135 26.2611 14.9328 25.7466 14.7826 25.216H7.56029C6.94923 25.216 6.3632 24.9733 5.93111 24.5412C5.49903 24.1091 5.25629 23.5231 5.25629 22.912V10.624C5.25629 10.013 5.49903 9.42695 5.93111 8.99486C6.3632 8.56278 6.94923 8.32004 7.56029 8.32004H10.6292C10.7715 8.31975 10.9108 8.27996 11.0318 8.2051C11.1527 8.13025 11.2505 8.02327 11.3143 7.8961L12.4325 5.67044C12.4965 5.54332 12.5947 5.4365 12.7159 5.36191C12.8371 5.28732 12.9767 5.2479 13.1191 5.24804H18.9006C19.0433 5.24776 19.1834 5.28728 19.3049 5.36216C19.4265 5.43705 19.5247 5.54433 19.5887 5.67197L20.6992 7.89456C20.7631 8.02197 20.8611 8.1291 20.9824 8.20397C21.1036 8.27884 21.2433 8.3185 21.3858 8.3185H24.4563C25.0673 8.3185 25.6534 8.56124 26.0855 8.99333C26.5175 9.42541 26.7603 10.0114 26.7603 10.6225V15.3887C27.3077 15.6691 27.8227 16.0085 28.2963 16.4009V10.6225C28.2963 9.60407 27.8917 8.62735 27.1716 7.90721C26.4514 7.18707 25.4747 6.7825 24.4563 6.7825H21.8604L20.9619 4.98538C20.7705 4.60264 20.4762 4.28078 20.1121 4.05587C19.748 3.83097 19.3285 3.71191 18.9006 3.71204H13.1191ZM16.0006 9.85604C17.3722 9.85609 18.7043 10.3148 19.7851 11.1593C20.8658 12.0038 21.6331 13.1854 21.9649 14.5163C21.4542 14.5734 20.9498 14.6773 20.4581 14.8265C20.2517 14.0424 19.8421 13.3265 19.2706 12.7512C18.6992 12.1759 17.9861 11.7616 17.2033 11.55C16.4205 11.3384 15.5957 11.337 14.8123 11.546C14.0288 11.755 13.3143 12.167 12.7409 12.7403C12.1675 13.3137 11.7556 14.0282 11.5466 14.8117C11.3376 15.5952 11.3389 16.4199 11.5505 17.2027C11.7622 17.9855 12.1765 18.6986 12.7518 19.2701C13.3271 19.8415 14.0429 20.2511 14.8271 20.4575C14.6779 20.9487 14.5741 21.4526 14.5168 21.9628C13.0655 21.596 11.7979 20.7123 10.9518 19.4773C10.1057 18.2424 9.73937 16.7411 9.92147 15.2553C10.1036 13.7694 10.8216 12.4011 11.9409 11.407C13.0601 10.413 14.5036 9.86146 16.0006 9.85604ZM29.8246 22.912C29.8246 24.7452 29.0964 26.5033 27.8001 27.7996C26.5039 29.0958 24.7458 29.824 22.9126 29.824C21.0794 29.824 19.3213 29.0958 18.0251 27.7996C16.7288 26.5033 16.0006 24.7452 16.0006 22.912C16.0006 21.0789 16.7288 19.3208 18.0251 18.0245C19.3213 16.7283 21.0794 16 22.9126 16C24.7458 16 26.5039 16.7283 27.8001 18.0245C29.0964 19.3208 29.8246 21.0789 29.8246 22.912ZM23.6806 19.84C23.6806 19.6363 23.5997 19.441 23.4557 19.297C23.3116 19.1529 23.1163 19.072 22.9126 19.072C22.7089 19.072 22.5136 19.1529 22.3695 19.297C22.2255 19.441 22.1446 19.6363 22.1446 19.84V22.144H19.8406C19.6369 22.144 19.4416 22.2249 19.2975 22.369C19.1535 22.513 19.0726 22.7083 19.0726 22.912C19.0726 23.1157 19.1535 23.3111 19.2975 23.4551C19.4416 23.5991 19.6369 23.68 19.8406 23.68H22.1446V25.984C22.1446 26.1877 22.2255 26.3831 22.3695 26.5271C22.5136 26.6711 22.7089 26.752 22.9126 26.752C23.1163 26.752 23.3116 26.6711 23.4557 26.5271C23.5997 26.3831 23.6806 26.1877 23.6806 25.984V23.68H25.9846C26.1883 23.68 26.3836 23.5991 26.5277 23.4551C26.6717 23.3111 26.7526 23.1157 26.7526 22.912C26.7526 22.7083 26.6717 22.513 26.5277 22.369C26.3836 22.2249 26.1883 22.144 25.9846 22.144H23.6806V19.84Z" fill="white"/>
</svg>
