<svg width="22" height="20" viewBox="0 0 22 20" fill="none" xmlns="http://www.w3.org/2000/svg">
<path d="M9.52184 19.0883C9.69107 19.2415 9.91342 19.3224 10.1415 19.3139C10.3695 19.3054 10.5853 19.2082 10.7426 19.0429C10.9 18.8776 10.9866 18.6574 10.9839 18.4292C10.9812 18.201 10.8894 17.9829 10.7282 17.8213L3.43534 10.875H20.625C20.8571 10.875 21.0796 10.7828 21.2437 10.6187C21.4078 10.4546 21.5 10.2321 21.5 10C21.5 9.76794 21.4078 9.54538 21.2437 9.38129C21.0796 9.21719 20.8571 9.125 20.625 9.125H3.43534L10.7282 2.17751C10.8894 2.01599 10.9812 1.79787 10.9839 1.56967C10.9866 1.34146 10.9 1.12124 10.7426 0.955951C10.5853 0.790666 10.3695 0.693407 10.1415 0.684917C9.91342 0.676427 9.69107 0.757378 9.52184 0.910505L0.865178 9.15534C0.675712 9.3351 0.552402 9.5735 0.515178 9.832C0.493823 9.94342 0.494219 10.0579 0.516344 10.1692C0.553819 10.4273 0.67711 10.6652 0.866344 10.8447L9.52184 19.0895V19.0883Z" fill="#818C99"/>
</svg>
