<svg width="28" height="28" viewBox="0 0 28 28" fill="none" xmlns="http://www.w3.org/2000/svg">
<path d="M8.23202 2.82102L9.59352 2.41152C10.3394 2.18662 11.1415 2.24076 11.8504 2.56384C12.5593 2.88693 13.1263 3.45688 13.4458 4.16736L14.4982 6.50769C14.7729 7.11879 14.8494 7.80056 14.7169 8.45735C14.5845 9.11414 14.2498 9.71298 13.7597 10.1699L12.0167 11.795C11.9657 11.8425 11.9335 11.9066 11.9257 11.9759C11.8744 12.439 12.1882 13.3409 12.9115 14.595C13.4377 15.5062 13.9149 16.1467 14.3197 16.5049C14.602 16.7557 14.7572 16.8094 14.8237 16.7907L17.1687 16.0732C17.8091 15.8773 18.4947 15.8867 19.1295 16.1001C19.7643 16.3135 20.3163 16.7202 20.7084 17.2632L22.2029 19.3352C22.6573 19.9653 22.8677 20.7389 22.795 21.5124C22.7222 22.2859 22.3713 23.0067 21.8074 23.541L20.7737 24.521C20.2251 25.0405 19.5513 25.4091 18.8179 25.5909C18.0845 25.7727 17.3166 25.7614 16.5889 25.5582C13.3758 24.661 10.4953 21.9497 7.91468 17.4802C5.33052 13.0049 4.42402 9.15019 5.25935 5.91502C5.44739 5.18741 5.81968 4.52051 6.34035 3.97859C6.86102 3.43667 7.51251 3.038 8.23202 2.82102ZM8.73718 4.49752C8.3056 4.62755 7.91477 4.86652 7.60234 5.19142C7.28991 5.51632 7.06641 5.91619 6.95335 6.35252C6.25102 9.07319 7.05485 12.4904 9.43018 16.6052C11.802 20.7142 14.3559 23.1175 17.0602 23.8735C17.4967 23.9951 17.9572 24.0016 18.397 23.8924C18.8367 23.7833 19.2407 23.5621 19.5697 23.2505L20.6045 22.2705C20.861 22.0276 21.0205 21.6999 21.0536 21.3482C21.0866 20.9965 20.9909 20.6448 20.7842 20.3584L19.2908 18.2875C19.1127 18.0404 18.8616 17.8554 18.5728 17.7583C18.284 17.6612 17.9721 17.657 17.6809 17.7462L15.33 18.466C13.965 18.872 12.726 17.7742 11.396 15.47C10.5 13.9184 10.0823 12.7167 10.1862 11.7822C10.241 11.2969 10.4662 10.8489 10.8232 10.5152L12.5662 8.89002C12.789 8.68237 12.9413 8.41015 13.0015 8.11157C13.0618 7.81298 13.0271 7.50302 12.9022 7.22519L11.8498 4.88486C11.7046 4.56217 11.447 4.30329 11.1251 4.15647C10.8031 4.00965 10.4387 3.98491 10.0998 4.08686L8.73718 4.49752Z" fill="#818C99"/>
</svg>
