<svg width="20" height="20" viewBox="0 0 20 20" fill="none" xmlns="http://www.w3.org/2000/svg">
<path d="M6.98743 2.0661C7.42501 1.93417 7.89458 1.95609 8.31797 2.12821C8.74136 2.30033 9.09303 2.61227 9.31443 3.0121L9.38843 3.1611L10.0504 4.6321C10.2513 5.07858 10.3166 5.57428 10.238 6.05754C10.1594 6.54079 9.94046 6.99028 9.60843 7.3501L9.47543 7.4821L8.43243 8.4551C8.24443 8.6331 8.38543 9.3221 9.06543 10.5001C9.67743 11.5601 10.1754 12.0551 10.4204 12.0821H10.4634L10.5164 12.0721L12.5664 11.4451C12.8419 11.3606 13.136 11.3573 13.4133 11.4355C13.6907 11.5137 13.9396 11.6701 14.1304 11.8861L14.2214 12.0011L15.5784 13.8811C15.8444 14.2496 15.9769 14.6977 15.9542 15.1515C15.9315 15.6054 15.7548 16.038 15.4534 16.3781L15.3314 16.5041L14.7894 17.0181C14.3027 17.479 13.6939 17.7905 13.0353 17.9155C12.3768 18.0404 11.6962 17.9737 11.0744 17.7231C9.13943 16.9431 7.38143 15.1611 5.78443 12.3951C4.18443 9.6221 3.51943 7.2051 3.81643 5.1351C3.9063 4.50937 4.16397 3.91966 4.56206 3.4286C4.96016 2.93754 5.48382 2.56346 6.07743 2.3461L6.27043 2.2821L6.98743 2.0661Z" fill="white"/>
</svg>
