<svg width="36" height="36" viewBox="0 0 36 36" fill="none" xmlns="http://www.w3.org/2000/svg">
<path d="M21.5164 17.2148L22.3853 21.5569C22.4949 22.1044 22.7674 22.6061 23.1672 22.9959C23.5669 23.3858 24.0752 23.6457 24.6253 23.7415L28.1613 24.3569C29.014 24.505 29.8911 24.3208 30.6122 23.8421C31.3333 23.3634 31.8436 22.6267 32.0382 21.7834L32.5034 19.7698C33.1004 17.184 32.0321 14.3471 29.381 13.3083C26.7878 12.2917 22.8825 11.216 17.9964 11.2308C13.1385 11.2468 9.24929 12.3102 6.65852 13.3132C3.98775 14.3458 2.90221 17.1951 3.50283 19.7994L3.96067 21.7834C4.15559 22.6267 4.6662 23.3634 5.38753 23.8418C6.10886 24.3202 6.98608 24.5041 7.83883 24.3557L11.3736 23.7415C11.9237 23.6457 12.432 23.3858 12.8317 22.9959C13.2315 22.6061 13.504 22.1044 13.6136 21.5569L14.4825 17.2148C14.6831 17.168 14.9293 17.1138 15.2111 17.0609C15.9878 16.9132 17.0031 16.7692 18.0001 16.7692C18.997 16.7692 20.0111 16.9132 20.789 17.0609C21.0708 17.1138 21.3182 17.168 21.5164 17.2148Z" fill="white"/>
</svg>
