<svg width="24" height="24" viewBox="0 0 24 24" fill="none" xmlns="http://www.w3.org/2000/svg">
<path d="M5.25 3C4.38805 3 3.5614 3.34241 2.9519 3.9519C2.34241 4.5614 2 5.38805 2 6.25V17.75C2 18.612 2.34241 19.4386 2.9519 20.0481C3.5614 20.6576 4.38805 21 5.25 21H18.75C19.1768 21 19.5994 20.9159 19.9937 20.7526C20.388 20.5893 20.7463 20.3499 21.0481 20.0481C21.3499 19.7463 21.5893 19.388 21.7526 18.9937C21.9159 18.5994 22 18.1768 22 17.75V6.25C22 5.8232 21.9159 5.40059 21.7526 5.00628C21.5893 4.61197 21.3499 4.25369 21.0481 3.9519C20.7463 3.65011 20.388 3.41072 19.9937 3.24739C19.5994 3.08406 19.1768 3 18.75 3H5.25ZM3.5 6.25C3.5 5.284 4.284 4.5 5.25 4.5H18.75C19.716 4.5 20.5 5.284 20.5 6.25V17.75C20.5 18.2141 20.3156 18.6592 19.9874 18.9874C19.6592 19.3156 19.2141 19.5 18.75 19.5H5.25C4.78587 19.5 4.34075 19.3156 4.01256 18.9874C3.68437 18.6592 3.5 18.2141 3.5 17.75V6.25Z" fill="#818C99"/>
<path fill-rule="evenodd" clip-rule="evenodd" d="M12 17C14.7614 17 17 14.7614 17 12C17 9.23858 14.7614 7 12 7C9.23858 7 7 9.23858 7 12C7 14.7614 9.23858 17 12 17ZM12 15.5C13.933 15.5 15.5 13.933 15.5 12C15.5 10.067 13.933 8.5 12 8.5C10.067 8.5 8.5 10.067 8.5 12C8.5 13.933 10.067 15.5 12 15.5Z" fill="#818C99"/>
</svg>
