<svg width="28" height="29" viewBox="0 0 28 29" fill="none" xmlns="http://www.w3.org/2000/svg">
<path d="M6.41683 9.83335C6.41683 9.05981 6.72412 8.31794 7.2711 7.77096C7.81808 7.22398 8.55995 6.91669 9.3335 6.91669C10.107 6.91669 10.8489 7.22398 11.3959 7.77096C11.9429 8.31794 12.2502 9.05981 12.2502 9.83335C12.2502 10.6069 11.9429 11.3488 11.3959 11.8957C10.8489 12.4427 10.107 12.75 9.3335 12.75C8.55995 12.75 7.81808 12.4427 7.2711 11.8957C6.72412 11.3488 6.41683 10.6069 6.41683 9.83335ZM9.3335 5.16669C8.09582 5.16669 6.90883 5.65835 6.03366 6.53352C5.15849 7.40869 4.66683 8.59568 4.66683 9.83335C4.66683 11.071 5.15849 12.258 6.03366 13.1332C6.90883 14.0084 8.09582 14.5 9.3335 14.5C10.5712 14.5 11.7582 14.0084 12.6333 13.1332C13.5085 12.258 14.0002 11.071 14.0002 9.83335C14.0002 8.59568 13.5085 7.40869 12.6333 6.53352C11.7582 5.65835 10.5712 5.16669 9.3335 5.16669ZM18.0835 11C18.0835 10.5359 18.2679 10.0908 18.5961 9.76258C18.9242 9.43439 19.3694 9.25002 19.8335 9.25002C20.2976 9.25002 20.7427 9.43439 21.0709 9.76258C21.3991 10.0908 21.5835 10.5359 21.5835 11C21.5835 11.4641 21.3991 11.9093 21.0709 12.2375C20.7427 12.5656 20.2976 12.75 19.8335 12.75C19.3694 12.75 18.9242 12.5656 18.5961 12.2375C18.2679 11.9093 18.0835 11.4641 18.0835 11ZM19.8335 7.50002C18.9052 7.50002 18.015 7.86877 17.3586 8.52515C16.7022 9.18152 16.3335 10.0718 16.3335 11C16.3335 11.9283 16.7022 12.8185 17.3586 13.4749C18.015 14.1313 18.9052 14.5 19.8335 14.5C20.7618 14.5 21.652 14.1313 22.3084 13.4749C22.9647 12.8185 23.3335 11.9283 23.3335 11C23.3335 10.0718 22.9647 9.18152 22.3084 8.52515C21.652 7.86877 20.7618 7.50002 19.8335 7.50002ZM16.6228 22.711C17.443 23.0435 18.4942 23.25 19.8347 23.25C22.497 23.25 24.0183 22.4369 24.8478 21.4324C25.2503 20.9447 25.4545 20.4524 25.5595 20.0755C25.6193 19.8572 25.6557 19.6331 25.668 19.407V19.3755C25.668 19.0417 25.6022 18.7111 25.4745 18.4027C25.3467 18.0942 25.1595 17.814 24.9234 17.5779C24.6873 17.3419 24.4071 17.1546 24.0987 17.0269C23.7902 16.8991 23.4597 16.8334 23.1258 16.8334H16.5435C16.5108 16.8334 16.4793 16.8334 16.4478 16.8357C16.9075 17.314 17.2412 17.9149 17.3998 18.5834H23.1258C23.5598 18.5834 23.9122 18.9322 23.918 19.3639C23.9097 19.4475 23.8941 19.5303 23.8713 19.6112C23.7993 19.8706 23.6719 20.1114 23.498 20.317C23.0897 20.814 22.1307 21.5 19.8347 21.5C18.6913 21.5 17.8793 21.3297 17.303 21.0975C17.177 21.5642 16.9693 22.1277 16.6228 22.711ZM4.9585 16.8334C4.2623 16.8334 3.59462 17.1099 3.10234 17.6022C2.61006 18.0945 2.3335 18.7622 2.3335 19.4584V19.7827C2.33487 19.8638 2.34032 19.9448 2.34983 20.0254C2.44617 20.8935 2.7582 21.7237 3.2575 22.4404C4.21183 23.803 6.03416 25 9.3335 25C12.6328 25 14.4552 23.8042 15.4095 22.4392C15.9089 21.7226 16.221 20.8923 16.3172 20.0242C16.3254 19.9439 16.3308 19.8634 16.3335 19.7827V19.4584C16.3335 18.7622 16.0569 18.0945 15.5647 17.6022C15.0724 17.1099 14.4047 16.8334 13.7085 16.8334H4.9585ZM4.0835 19.7582V19.4584C4.0835 19.2263 4.17568 19.0037 4.33978 18.8396C4.50387 18.6755 4.72643 18.5834 4.9585 18.5834H13.7085C13.9406 18.5834 14.1631 18.6755 14.3272 18.8396C14.4913 19.0037 14.5835 19.2263 14.5835 19.4584V19.7582L14.5753 19.8515C14.5088 20.4209 14.3029 20.9651 13.9757 21.4359C13.4005 22.2584 12.1592 23.25 9.3335 23.25C6.50783 23.25 5.2665 22.2584 4.69016 21.4359C4.36337 20.965 4.1578 20.4208 4.09166 19.8515C4.08812 19.8205 4.0854 19.7894 4.0835 19.7582Z" fill="#3F8AE0"/>
</svg>
