<svg width="16" height="16" viewBox="0 0 16 16" fill="none" xmlns="http://www.w3.org/2000/svg">
<path d="M12.4448 4.24723C12.6135 4.08659 12.8381 3.99777 13.0711 3.99954C13.304 4.0013 13.5272 4.0935 13.6935 4.25668C13.8598 4.41986 13.9562 4.64126 13.9623 4.87416C13.9685 5.10706 13.8839 5.33325 13.7265 5.50499L7.74917 12.6802C7.66699 12.7687 7.5678 12.8397 7.45753 12.889C7.34726 12.9384 7.22819 12.9649 7.10742 12.9672C6.98665 12.9694 6.86667 12.9473 6.75465 12.9021C6.64264 12.8569 6.54089 12.7895 6.45548 12.7041L3.28594 9.53459C3.19767 9.45234 3.12688 9.35316 3.07777 9.24296C3.02867 9.13276 3.00227 9.01379 3.00014 8.89317C2.99801 8.77254 3.0202 8.65272 3.06539 8.54085C3.11057 8.42898 3.17782 8.32736 3.26313 8.24205C3.34844 8.15674 3.45006 8.08949 3.56193 8.04431C3.6738 7.99912 3.79362 7.97693 3.91425 7.97906C4.03487 7.98119 4.15384 8.00759 4.26404 8.05669C4.37424 8.1058 4.47342 8.17659 4.55567 8.26486L7.06399 10.772L12.422 4.27359C12.4295 4.26436 12.4363 4.25557 12.4448 4.24723Z" fill="#3F8AE0"/>
</svg>
