<svg width="20" height="20" viewBox="0 0 20 20" fill="none" xmlns="http://www.w3.org/2000/svg">
<path d="M6.00049 2.00006C5.47006 2.00006 4.96135 2.21077 4.58627 2.58585C4.2112 2.96092 4.00049 3.46963 4.00049 4.00006V16.0001C4.00049 16.5305 4.2112 17.0392 4.58627 17.4143C4.96135 17.7893 5.47006 18.0001 6.00049 18.0001H15.5005C15.6331 18.0001 15.7603 17.9474 15.854 17.8536C15.9478 17.7598 16.0005 17.6327 16.0005 17.5001C16.0005 17.3675 15.9478 17.2403 15.854 17.1465C15.7603 17.0527 15.6331 17.0001 15.5005 17.0001H6.00049C5.73527 17.0001 5.48092 16.8947 5.29338 16.7072C5.10585 16.5196 5.00049 16.2653 5.00049 16.0001H15.0005C15.2657 16.0001 15.5201 15.8947 15.7076 15.7072C15.8951 15.5196 16.0005 15.2653 16.0005 15.0001V4.00006C16.0005 3.46963 15.7898 2.96092 15.4147 2.58585C15.0396 2.21077 14.5309 2.00006 14.0005 2.00006H6.00049ZM11.5005 7.50006C11.5005 7.89789 11.3425 8.27942 11.0611 8.56072C10.7798 8.84203 10.3983 9.00006 10.0005 9.00006C9.60266 9.00006 9.22113 8.84203 8.93983 8.56072C8.65852 8.27942 8.50049 7.89789 8.50049 7.50006C8.50049 7.10224 8.65852 6.72071 8.93983 6.4394C9.22113 6.1581 9.60266 6.00006 10.0005 6.00006C10.3983 6.00006 10.7798 6.1581 11.0611 6.4394C11.3425 6.72071 11.5005 7.10224 11.5005 7.50006ZM7.00049 10.7501C7.00049 10.5511 7.07951 10.3604 7.22016 10.2197C7.36081 10.0791 7.55158 10.0001 7.75049 10.0001H12.2505C12.4494 10.0001 12.6402 10.0791 12.7808 10.2197C12.9215 10.3604 13.0005 10.5511 13.0005 10.7501V11.0001C13.0005 11.5305 12.7898 12.0392 12.4147 12.4143C12.0396 12.7893 11.5309 13.0001 11.0005 13.0001H9.00049C8.47006 13.0001 7.96135 12.7893 7.58627 12.4143C7.2112 12.0392 7.00049 11.5305 7.00049 11.0001V10.7501Z" fill="white"/>
</svg>
