<svg width="40" height="40" viewBox="0 0 40 40" fill="none" xmlns="http://www.w3.org/2000/svg">
<path d="M9.375 2.5C7.64833 2.5 6.25 3.9 6.25 5.625V34.375C6.25 36.1 7.65 37.5 9.375 37.5H30.625C32.35 37.5 33.75 36.1 33.75 34.375V21.25C33.75 19.5924 33.0915 18.0027 31.9194 16.8306C30.7473 15.6585 29.1576 15 27.5 15H24.375C23.5462 15 22.7513 14.6708 22.1653 14.0847C21.5792 13.4987 21.25 12.7038 21.25 11.875V8.75C21.25 7.0924 20.5915 5.50268 19.4194 4.33058C18.2473 3.15848 16.6576 2.5 15 2.5H9.375Z" fill="white"/>
<path d="M21.6182 3.02661C22.9957 4.61488 23.7527 6.64752 23.7498 8.74994V11.8749C23.7498 12.2199 24.0298 12.4999 24.3748 12.4999H27.4998C29.6023 12.497 31.6349 13.2541 33.2232 14.6316C32.4899 11.8428 31.029 9.29878 28.99 7.25976C26.951 5.22074 24.407 3.75988 21.6182 3.02661Z" fill="white"/>
<path d="M12.1313 32H10.4287L10.4395 30.7432H12.1313C12.5539 30.7432 12.9102 30.6483 13.2002 30.4585C13.4902 30.2651 13.7087 29.984 13.8555 29.6152C14.0059 29.2464 14.0811 28.8006 14.0811 28.2778V27.8965C14.0811 27.4954 14.0381 27.1427 13.9521 26.8384C13.8698 26.534 13.7463 26.278 13.5815 26.0703C13.4168 25.8626 13.2145 25.7069 12.9746 25.603C12.7347 25.4956 12.459 25.4419 12.1475 25.4419H10.3965V24.1797H12.1475C12.6702 24.1797 13.1483 24.2692 13.5815 24.4482C14.0184 24.6237 14.3962 24.8761 14.7148 25.2056C15.0335 25.535 15.2788 25.9289 15.4507 26.3872C15.6261 26.842 15.7139 27.3486 15.7139 27.9072V28.2778C15.7139 28.8328 15.6261 29.3395 15.4507 29.7979C15.2788 30.2562 15.0335 30.6501 14.7148 30.9795C14.3997 31.3053 14.022 31.5578 13.5815 31.7368C13.1447 31.9123 12.6613 32 12.1313 32ZM11.3418 24.1797V32H9.73047V24.1797H11.3418ZM23.3086 27.9072V28.2778C23.3086 28.8722 23.228 29.4058 23.0669 29.8784C22.9058 30.3511 22.6784 30.7539 22.3848 31.0869C22.0911 31.4163 21.7402 31.6688 21.332 31.8442C20.9274 32.0197 20.478 32.1074 19.9839 32.1074C19.4933 32.1074 19.0439 32.0197 18.6357 31.8442C18.2311 31.6688 17.8802 31.4163 17.583 31.0869C17.2858 30.7539 17.0549 30.3511 16.8901 29.8784C16.729 29.4058 16.6484 28.8722 16.6484 28.2778V27.9072C16.6484 27.3092 16.729 26.7757 16.8901 26.3066C17.0513 25.834 17.2786 25.4312 17.5723 25.0981C17.8695 24.7651 18.2204 24.5109 18.625 24.3354C19.0332 24.16 19.4826 24.0723 19.9731 24.0723C20.4673 24.0723 20.9167 24.16 21.3213 24.3354C21.7295 24.5109 22.0804 24.7651 22.374 25.0981C22.6712 25.4312 22.9004 25.834 23.0615 26.3066C23.2262 26.7757 23.3086 27.3092 23.3086 27.9072ZM21.6812 28.2778V27.8965C21.6812 27.4811 21.6436 27.1159 21.5684 26.8008C21.4932 26.4857 21.3822 26.2207 21.2354 26.0059C21.0885 25.791 20.9095 25.6299 20.6982 25.5225C20.487 25.4115 20.2453 25.356 19.9731 25.356C19.701 25.356 19.4593 25.4115 19.248 25.5225C19.0404 25.6299 18.8631 25.791 18.7163 26.0059C18.5731 26.2207 18.4639 26.4857 18.3887 26.8008C18.3135 27.1159 18.2759 27.4811 18.2759 27.8965V28.2778C18.2759 28.6896 18.3135 29.0549 18.3887 29.3735C18.4639 29.6886 18.5749 29.9554 18.7217 30.1738C18.8685 30.3887 19.0475 30.5516 19.2588 30.6626C19.4701 30.7736 19.7118 30.8291 19.9839 30.8291C20.256 30.8291 20.4977 30.7736 20.709 30.6626C20.9202 30.5516 21.0975 30.3887 21.2407 30.1738C21.384 29.9554 21.4932 29.6886 21.5684 29.3735C21.6436 29.0549 21.6812 28.6896 21.6812 28.2778ZM29.002 29.4058H30.6079C30.5757 29.9321 30.4307 30.3994 30.1729 30.8076C29.9186 31.2158 29.5623 31.5345 29.104 31.7637C28.6493 31.9928 28.1014 32.1074 27.4604 32.1074C26.9591 32.1074 26.5098 32.0215 26.1123 31.8496C25.7148 31.6742 25.3747 31.4235 25.0918 31.0977C24.8125 30.7718 24.5994 30.3779 24.4526 29.916C24.3058 29.4541 24.2324 28.9367 24.2324 28.3638V27.8213C24.2324 27.2484 24.3076 26.731 24.458 26.269C24.612 25.8035 24.8304 25.4079 25.1133 25.082C25.3997 24.7562 25.7417 24.5055 26.1392 24.3301C26.5366 24.1546 26.9806 24.0669 27.4712 24.0669C28.1229 24.0669 28.6725 24.1851 29.1201 24.4214C29.5713 24.6577 29.9204 24.9836 30.1675 25.3989C30.4181 25.8143 30.5685 26.2869 30.6187 26.8169H29.0073C28.9894 26.5018 28.9268 26.235 28.8193 26.0166C28.7119 25.7946 28.549 25.6281 28.3306 25.5171C28.1157 25.4025 27.8293 25.3452 27.4712 25.3452C27.2026 25.3452 26.9681 25.3953 26.7676 25.4956C26.5671 25.5959 26.3988 25.748 26.2627 25.9521C26.1266 26.1562 26.0246 26.4141 25.9565 26.7256C25.8921 27.0335 25.8599 27.3952 25.8599 27.8105V28.3638C25.8599 28.7684 25.8903 29.1247 25.9512 29.4326C26.012 29.737 26.1051 29.9948 26.2305 30.2061C26.3594 30.4137 26.5241 30.5713 26.7246 30.6787C26.9287 30.7826 27.174 30.8345 27.4604 30.8345C27.797 30.8345 28.0745 30.7808 28.293 30.6733C28.5114 30.5659 28.6779 30.4066 28.7925 30.1953C28.9106 29.984 28.9805 29.7209 29.002 29.4058Z" fill="#3F8AE0"/>
</svg>
