<svg width="16" height="16" viewBox="0 0 16 16" fill="none" xmlns="http://www.w3.org/2000/svg">
<path d="M9.54489 4.27996C9.71363 4.11931 9.93817 4.0305 10.1711 4.03226C10.4041 4.03403 10.6273 4.12623 10.7936 4.28941C10.9599 4.45259 11.0563 4.67399 11.0624 4.90689C11.0686 5.13979 10.984 5.36597 10.8266 5.53771L4.84927 12.7129C4.76709 12.8014 4.66789 12.8725 4.55763 12.9218C4.44736 12.9711 4.32828 12.9976 4.20752 12.9999C4.08675 13.0021 3.96677 12.98 3.85475 12.9348C3.74274 12.8896 3.64098 12.8223 3.55558 12.7369L0.386037 9.56732C0.29777 9.48507 0.226974 9.38589 0.177871 9.27568C0.128769 9.16548 0.102366 9.04652 0.100237 8.92589C0.0981091 8.80526 0.120299 8.68544 0.165484 8.57358C0.210668 8.46171 0.277922 8.36009 0.363232 8.27478C0.448542 8.18947 0.550161 8.12222 0.662027 8.07703C0.773893 8.03185 0.893714 8.00966 1.01434 8.01179C1.13497 8.01391 1.25393 8.04032 1.36414 8.08942C1.47434 8.13852 1.57352 8.20932 1.65577 8.29759L4.16409 10.8047L9.52093 4.30631C9.52839 4.29706 9.53639 4.28826 9.54489 4.27996ZM7.12521 11.515L8.34702 12.7369C8.43241 12.8221 8.53409 12.8892 8.64599 12.9343C8.7579 12.9794 8.87773 13.0015 8.99836 12.9993C9.11898 12.997 9.23792 12.9705 9.34807 12.9213C9.45823 12.8721 9.55735 12.8012 9.63952 12.7129L15.6192 5.53771C15.7051 5.45291 15.7731 5.35166 15.819 5.24001C15.8649 5.12837 15.8878 5.00862 15.8864 4.88792C15.885 4.76722 15.8593 4.64804 15.8108 4.5375C15.7623 4.42695 15.692 4.32732 15.6042 4.24454C15.5163 4.16176 15.4127 4.09753 15.2994 4.05569C15.1862 4.01385 15.0657 3.99526 14.9451 4.00103C14.8246 4.00679 14.7064 4.0368 14.5977 4.08925C14.489 4.1417 14.3919 4.21552 14.3124 4.30631L8.95434 10.8047L8.25359 10.1028L7.12521 11.515Z" fill="#3F8AE0"/>
</svg>
