<svg width="20" height="20" viewBox="0 0 20 20" fill="none" xmlns="http://www.w3.org/2000/svg">
<path d="M15.8542 7.64627C15.9481 7.7399 16.0009 7.86698 16.0011 7.99957C16.0013 8.13215 15.9488 8.25938 15.8552 8.35327L10.3902 13.8373C10.3391 13.8887 10.2784 13.9295 10.2114 13.9573C10.1445 13.9851 10.0727 13.9995 10.0002 13.9995C9.92774 13.9995 9.85597 13.9851 9.78904 13.9573C9.72211 13.9295 9.66134 13.8887 9.61023 13.8373L4.14723 8.35327C4.09955 8.30708 4.06154 8.25185 4.03542 8.19082C4.00931 8.12978 3.99561 8.06415 3.99513 7.99776C3.99465 7.93138 4.00739 7.86556 4.03262 7.80415C4.05785 7.74274 4.09505 7.68697 4.14206 7.64009C4.18908 7.59321 4.24495 7.55616 4.30643 7.53111C4.36791 7.50606 4.43377 7.4935 4.50015 7.49417C4.56654 7.49483 4.63213 7.50872 4.69309 7.535C4.75406 7.56129 4.80918 7.59946 4.85523 7.64727L10.0002 12.8123L15.1472 7.64727C15.2409 7.5534 15.3679 7.50057 15.5005 7.50038C15.6331 7.50019 15.7603 7.55267 15.8542 7.64627Z" fill="#818C99"/>
</svg>
