<svg width="28" height="28" viewBox="0 0 28 28" fill="none" xmlns="http://www.w3.org/2000/svg">
<path d="M21.5832 23.3333C21.5832 23.488 21.5217 23.6364 21.4123 23.7458C21.3029 23.8552 21.1545 23.9166 20.9998 23.9166H6.99984C6.84513 23.9166 6.69675 23.8552 6.58736 23.7458C6.47796 23.6364 6.4165 23.488 6.4165 23.3333V4.66665C6.4165 4.51194 6.47796 4.36356 6.58736 4.25417C6.69675 4.14477 6.84513 4.08331 6.99984 4.08331H13.9998V9.33331C13.9998 9.95215 14.2457 10.5456 14.6833 10.9832C15.1208 11.4208 15.7143 11.6666 16.3332 11.6666H21.5832V23.3333ZM15.7498 5.39115L20.2742 9.91665H16.3332C16.1785 9.91665 16.0301 9.85519 15.9207 9.74579C15.8113 9.6364 15.7498 9.48802 15.7498 9.33331V5.39115ZM22.6495 9.81631L15.849 3.01698C15.8187 2.98665 15.7813 2.96331 15.7498 2.93531C15.6696 2.85956 15.5842 2.7894 15.4943 2.72531C15.4477 2.69381 15.394 2.67281 15.345 2.64598C15.2622 2.59931 15.1805 2.54798 15.093 2.51065C14.8607 2.41785 14.6148 2.36348 14.365 2.34965C14.3102 2.34615 14.2565 2.33331 14.2005 2.33331H6.99984C6.381 2.33331 5.78751 2.57915 5.34992 3.01673C4.91234 3.45432 4.6665 4.04781 4.6665 4.66665V23.3333C4.6665 23.9522 4.91234 24.5456 5.34992 24.9832C5.78751 25.4208 6.381 25.6666 6.99984 25.6666H20.9998C21.6187 25.6666 22.2122 25.4208 22.6498 24.9832C23.0873 24.5456 23.3332 23.9522 23.3332 23.3333V11.466C23.333 10.8472 23.0871 10.2538 22.6495 9.81631Z" fill="#3F8AE0"/>
</svg>
