<svg width="24" height="24" viewBox="0 0 24 24" fill="none" xmlns="http://www.w3.org/2000/svg">
<path d="M2.14716 2.29987L2.21979 2.21577C2.48612 1.94956 2.90279 1.92546 3.19635 2.14338L3.28045 2.21602L21.7805 20.7247C22.0733 21.0177 22.0732 21.4925 21.7802 21.7854C21.5139 22.0516 21.0972 22.0757 20.8036 21.8578L20.7195 21.7851L14.117 15.1802L7.79572 21.7693C7.28654 22.2999 6.42002 21.8563 6.50882 21.164L6.52698 21.0681L8.294 14H5.75C5.28493 14 4.94055 13.5845 5.008 13.1396L5.02886 13.044L6.573 7.63222L2.21955 3.27643C1.95334 3.0101 1.92923 2.59343 2.14716 2.29987L2.21979 2.21577L2.14716 2.29987ZM7.787 8.84622L6.7443 12.5H9.25458C9.70998 12.5 10.0522 12.8994 9.99961 13.3376L9.98219 13.4319L8.66622 18.6958L13.056 14.1182L7.787 8.84622ZM8.75 2H15.75C16.2278 2 16.5745 2.43688 16.487 2.88998L16.4615 2.98717L14.7906 8H19.25C19.874 8 20.2101 8.70693 19.8601 9.1871L19.7911 9.2693L16.1955 13.015L15.1345 11.954L17.4908 9.5H13.75C13.2722 9.5 12.9255 9.06312 13.013 8.61002L13.0385 8.51283L14.7094 3.5H9.31573L8.73054 5.547L7.51754 4.333L8.02886 2.54396C8.11063 2.25776 8.35224 2.05056 8.6401 2.00805L8.75 2Z" fill="#212121"/>
</svg>
