<svg width="20" height="22" viewBox="0 0 20 22" fill="none" xmlns="http://www.w3.org/2000/svg">
<path d="M0.147157 1.29987L0.219794 1.21577C0.486123 0.949565 0.902793 0.925457 1.19635 1.14338L1.28045 1.21602L19.7805 19.7247C20.0733 20.0177 20.0732 20.4925 19.7802 20.7854C19.5139 21.0516 19.0972 21.0757 18.8036 20.8578L18.7195 20.7851L12.117 14.1802L5.79572 20.7693C5.28654 21.2999 4.42002 20.8563 4.50882 20.164L4.52698 20.0681L6.294 13H3.75C3.28493 13 2.94055 12.5845 3.008 12.1396L3.02886 12.044L4.573 6.63222L0.219545 2.27643C-0.0466587 2.0101 -0.0707668 1.59343 0.147157 1.29987L0.219794 1.21577L0.147157 1.29987ZM5.787 7.84622L4.7443 11.5H7.25458C7.70998 11.5 8.05222 11.8994 7.99961 12.3376L7.98219 12.4319L6.66622 17.6958L11.056 13.1182L5.787 7.84622ZM6.75 1H13.75C14.2278 1 14.5745 1.43688 14.487 1.88998L14.4615 1.98717L12.7906 7H17.25C17.874 7 18.2101 7.70693 17.8601 8.1871L17.7911 8.2693L14.1955 12.015L13.1345 10.954L15.4908 8.5H11.75C11.2722 8.5 10.9255 8.06312 11.013 7.61002L11.0385 7.51283L12.7094 2.5H7.31573L6.73054 4.547L5.51754 3.333L6.02886 1.54396C6.11063 1.25776 6.35224 1.05056 6.6401 1.00805L6.75 1Z" fill="#212121"/>
</svg>
