<svg width="20" height="20" viewBox="0 0 20 20" fill="none" xmlns="http://www.w3.org/2000/svg">
<path d="M16.293 9.00007L12.903 12.3901C12.8148 12.4784 12.7628 12.5966 12.7573 12.7214C12.7517 12.8461 12.7931 12.9684 12.8732 13.0642C12.9533 13.16 13.0664 13.2223 13.1902 13.239C13.3139 13.2556 13.4394 13.2253 13.542 13.1541L13.611 13.0971L17.854 8.85407C17.9367 8.77122 17.9877 8.66198 17.9981 8.5454C18.0085 8.42882 17.9777 8.31227 17.911 8.21607L17.854 8.14607L13.611 3.90407C13.5228 3.81549 13.4046 3.76315 13.2798 3.75737C13.1549 3.75159 13.0324 3.79279 12.9364 3.87285C12.8404 3.95291 12.7779 4.06602 12.7612 4.18989C12.7444 4.31376 12.7747 4.43941 12.846 4.54207L12.904 4.61207L16.293 8.00007H10C8.0528 8.0001 6.18193 8.75743 4.78302 10.1119C3.38411 11.4664 2.56683 13.3119 2.504 15.2581L2.5 15.5001C2.5 15.6327 2.55268 15.7599 2.64645 15.8536C2.74021 15.9474 2.86739 16.0001 3 16.0001C3.13261 16.0001 3.25979 15.9474 3.35355 15.8536C3.44732 15.7599 3.5 15.6327 3.5 15.5001C3.49995 13.8165 4.15316 12.1985 5.32209 10.9869C6.49102 9.77525 8.08449 9.06442 9.767 9.00407L10 9.00007H16.293Z" fill="#67707A"/>
</svg>
