<svg width="28" height="28" viewBox="0 0 28 28" fill="none" xmlns="http://www.w3.org/2000/svg">
<path d="M20.7083 3.5C21.7139 3.5 22.6784 3.89948 23.3894 4.61055C24.1005 5.32163 24.5 6.28605 24.5 7.29167V20.7083C24.5 21.7139 24.1005 22.6784 23.3894 23.3894C22.6784 24.1005 21.7139 24.5 20.7083 24.5H7.29167C6.28605 24.5 5.32163 24.1005 4.61055 23.3894C3.89948 22.6784 3.5 21.7139 3.5 20.7083V7.29167C3.5 6.28605 3.89948 5.32163 4.61055 4.61055C5.32163 3.89948 6.28605 3.5 7.29167 3.5H20.7083ZM21.385 22.6345L14.6125 16.0008C14.4648 15.856 14.2705 15.7683 14.0642 15.7531C13.8578 15.7379 13.6528 15.7964 13.4855 15.918L13.3875 15.9997L6.61267 22.6345C6.825 22.7092 7.05367 22.75 7.29167 22.75H20.7083C20.9452 22.75 21.1738 22.7092 21.385 22.6345L14.6125 16.0008L21.385 22.6333V22.6345ZM20.7083 5.25H7.29167C6.75018 5.25 6.23088 5.4651 5.84799 5.84799C5.4651 6.23088 5.25 6.75018 5.25 7.29167V20.7083C5.25 20.951 5.292 21.1843 5.37017 21.4013L12.1637 14.7502C12.6294 14.2943 13.248 14.0279 13.8992 14.0029C14.5505 13.9779 15.1877 14.196 15.687 14.6148L15.8363 14.7502L22.6287 21.4025C22.7068 21.1855 22.75 20.9522 22.75 20.7083V7.29167C22.75 6.75018 22.5349 6.23088 22.152 5.84799C21.7691 5.4651 21.2498 5.25 20.7083 5.25ZM17.794 7.58333C18.4908 7.58333 19.1591 7.86014 19.6518 8.35286C20.1445 8.84558 20.4213 9.51385 20.4213 10.2107C20.4213 10.9075 20.1445 11.5758 19.6518 12.0685C19.1591 12.5612 18.4908 12.838 17.794 12.838C17.0972 12.838 16.4289 12.5612 15.9362 12.0685C15.4435 11.5758 15.1667 10.9075 15.1667 10.2107C15.1667 9.51385 15.4435 8.84558 15.9362 8.35286C16.4289 7.86014 17.0972 7.58333 17.794 7.58333ZM17.794 9.33333C17.5613 9.33333 17.3382 9.42577 17.1736 9.5903C17.0091 9.75483 16.9167 9.97798 16.9167 10.2107C16.9167 10.4433 17.0091 10.6665 17.1736 10.831C17.3382 10.9956 17.5613 11.088 17.794 11.088C18.0267 11.088 18.2498 10.9956 18.4144 10.831C18.5789 10.6665 18.6713 10.4433 18.6713 10.2107C18.6713 9.97798 18.5789 9.75483 18.4144 9.5903C18.2498 9.42577 18.0267 9.33333 17.794 9.33333Z" fill="#3F8AE0"/>
</svg>
