<svg width="20" height="20" viewBox="0 0 20 20" fill="none" xmlns="http://www.w3.org/2000/svg">
<path d="M12.4995 4.50043C12.4995 5.16347 12.2361 5.79935 11.7673 6.26819C11.2984 6.73704 10.6626 7.00043 9.99951 7.00043C9.33647 7.00043 8.70059 6.73704 8.23174 6.26819C7.7629 5.79935 7.49951 5.16347 7.49951 4.50043C7.49951 3.83739 7.7629 3.2015 8.23174 2.73266C8.70059 2.26382 9.33647 2.00043 9.99951 2.00043C10.6626 2.00043 11.2984 2.26382 11.7673 2.73266C12.2361 3.2015 12.4995 3.83739 12.4995 4.50043ZM17.4995 5.00043C17.4995 5.53086 17.2888 6.03957 16.9137 6.41464C16.5387 6.78971 16.0299 7.00043 15.4995 7.00043C14.9691 7.00043 14.4604 6.78971 14.0853 6.41464C13.7102 6.03957 13.4995 5.53086 13.4995 5.00043C13.4995 4.46999 13.7102 3.96129 14.0853 3.58621C14.4604 3.21114 14.9691 3.00043 15.4995 3.00043C16.0299 3.00043 16.5387 3.21114 16.9137 3.58621C17.2888 3.96129 17.4995 4.46999 17.4995 5.00043ZM4.49951 7.00043C5.02994 7.00043 5.53865 6.78971 5.91373 6.41464C6.2888 6.03957 6.49951 5.53086 6.49951 5.00043C6.49951 4.46999 6.2888 3.96129 5.91373 3.58621C5.53865 3.21114 5.02994 3.00043 4.49951 3.00043C3.96908 3.00043 3.46037 3.21114 3.0853 3.58621C2.71023 3.96129 2.49951 4.46999 2.49951 5.00043C2.49951 5.53086 2.71023 6.03957 3.0853 6.41464C3.46037 6.78971 3.96908 7.00043 4.49951 7.00043ZM5.99951 9.25043C5.99951 8.56043 6.55951 8.00043 7.24951 8.00043H12.7495C13.4395 8.00043 13.9995 8.56043 13.9995 9.25043V14.0004C13.9995 15.0613 13.5781 16.0787 12.8279 16.8289C12.0778 17.579 11.0604 18.0004 9.99951 18.0004C8.93865 18.0004 7.92123 17.579 7.17108 16.8289C6.42094 16.0787 5.99951 15.0613 5.99951 14.0004V9.25043ZM4.99951 9.25043C4.99951 8.78743 5.13951 8.35843 5.37851 8.00043H3.24951C2.55951 8.00043 1.99951 8.56043 1.99951 9.25043V13.0004C1.99947 13.4285 2.09105 13.8517 2.26811 14.2415C2.44518 14.6313 2.70362 14.9787 3.02607 15.2603C3.34852 15.5419 3.72751 15.7513 4.13758 15.8743C4.54765 15.9973 4.97929 16.0311 5.40351 15.9734C5.13596 15.3501 4.99849 14.6787 4.99951 14.0004V9.25043ZM14.9995 14.0004C14.9995 14.7004 14.8555 15.3684 14.5955 15.9734C15.0197 16.0311 15.4514 15.9973 15.8614 15.8743C16.2715 15.7513 16.6505 15.5419 16.973 15.2603C17.2954 14.9787 17.5538 14.6313 17.7309 14.2415C17.908 13.8517 17.9996 13.4285 17.9995 13.0004V9.25043C17.9995 8.56043 17.4395 8.00043 16.7495 8.00043H14.6205C14.8605 8.35843 14.9995 8.78743 14.9995 9.25043V14.0004Z" fill="white"/>
</svg>
