<svg width="20" height="20" viewBox="0 0 20 20" fill="none" xmlns="http://www.w3.org/2000/svg">
<path d="M10 6.875C10 7.7038 9.67076 8.49866 9.08471 9.08471C8.49866 9.67076 7.7038 10 6.875 10C6.0462 10 5.25134 9.67076 4.66529 9.08471C4.07924 8.49866 3.75 7.7038 3.75 6.875C3.75 6.0462 4.07924 5.25134 4.66529 4.66529C5.25134 4.07924 6.0462 3.75 6.875 3.75C7.7038 3.75 8.49866 4.07924 9.08471 4.66529C9.67076 5.25134 10 6.0462 10 6.875ZM14.375 10C15.038 10 15.6739 9.73661 16.1428 9.26777C16.6116 8.79893 16.875 8.16304 16.875 7.5C16.875 6.83696 16.6116 6.20107 16.1428 5.73223C15.6739 5.26339 15.038 5 14.375 5C13.712 5 13.0761 5.26339 12.6072 5.73223C12.1384 6.20107 11.875 6.83696 11.875 7.5C11.875 8.16304 12.1384 8.79893 12.6072 9.26777C13.0761 9.73661 13.712 10 14.375 10ZM13.125 13.2425V13.125C13.1259 12.4487 12.9065 11.7905 12.5 11.25H16.5912C17.4362 11.25 18.1225 11.935 18.1225 12.7812C18.1225 12.7812 18.1225 15.625 14.3725 15.625C13.625 15.625 13.0262 15.5125 12.5475 15.3313C12.8461 14.7841 13.0358 14.1843 13.1062 13.565C13.1137 13.4875 13.1187 13.4212 13.1213 13.3663L13.125 13.2413V13.2425ZM11.875 13.125C11.875 12.6277 11.6775 12.1508 11.3258 11.7992C10.9742 11.4475 10.4973 11.25 10 11.25H3.75C3.25272 11.25 2.77581 11.4475 2.42417 11.7992C2.07254 12.1508 1.875 12.6277 1.875 13.125V13.2188C1.875 13.2188 1.875 16.875 6.875 16.875C11.64 16.875 11.8638 13.555 11.875 13.2425V13.125Z" fill="#111111"/>
</svg>
