<svg width="28" height="29" viewBox="0 0 28 29" fill="none" xmlns="http://www.w3.org/2000/svg">
<path d="M23.3632 20.3343C20.1409 25.9157 13.0044 27.8278 7.42307 24.6055C5.92237 23.7412 4.63371 22.5526 3.65124 21.1265C3.57511 21.0161 3.52537 20.8897 3.50588 20.757C3.48638 20.6243 3.49765 20.4889 3.5388 20.3613C3.57996 20.2336 3.6499 20.1171 3.74323 20.0208C3.83657 19.9245 3.95079 19.851 4.07707 19.8058C8.47191 18.2332 10.8262 16.4108 12.1924 13.8022C13.6297 11.057 14.0019 8.05049 12.9962 3.92866C12.9638 3.79599 12.9629 3.65758 12.9935 3.52449C13.0242 3.3914 13.0856 3.26734 13.1728 3.16223C13.26 3.05711 13.3706 2.97387 13.4957 2.91916C13.6208 2.86445 13.757 2.83979 13.8934 2.84716C15.7246 2.94572 17.5064 3.47624 19.0932 4.39533C24.6746 7.61766 26.5867 14.7542 23.3632 20.3343ZM13.7406 14.6142C12.2822 17.4013 9.87891 19.3975 5.78741 21.0297C6.50523 21.8499 7.35352 22.546 8.29807 23.09C10.5744 24.3755 13.2663 24.7104 15.7882 24.0217C18.3102 23.3331 20.4583 21.6767 21.7655 19.4128C23.0727 17.1488 23.4332 14.4603 22.7688 11.9319C22.1043 9.40344 20.4685 7.23959 18.2171 5.91083C17.2094 5.3276 16.1067 4.92673 14.9597 4.72666C15.7146 8.67466 15.2281 11.7768 13.7406 14.6142Z" fill="#3F8AE0"/>
</svg>
