<svg width="28" height="28" viewBox="0 0 28 28" fill="none" xmlns="http://www.w3.org/2000/svg">
<path d="M13.9999 2.33105C20.4446 2.33105 25.6689 7.55539 25.6689 14.0001C25.6689 20.4436 20.4446 25.6667 13.9999 25.6667C7.55525 25.6679 2.33325 20.4436 2.33325 14.0001C2.33209 7.55539 7.55525 2.33105 13.9999 2.33105ZM17.4299 19.2501H10.5711C11.3318 22.0676 12.6548 23.9191 14.0011 23.9191C15.3463 23.9191 16.6693 22.0664 17.4299 19.2501ZM8.76159 19.2501H5.58242C6.70932 21.0522 8.38351 22.4464 10.3599 23.2284C9.75092 22.2717 9.24809 21.0747 8.87825 19.7109L8.75925 19.2501H8.76159ZM22.4174 19.2501H19.2418C18.8638 20.8076 18.3178 22.1667 17.6399 23.2296C19.4912 22.4973 21.0803 21.2265 22.2016 19.5814L22.4174 19.2501ZM8.27625 11.6667H4.35859L4.35275 11.6866C4.1726 12.4445 4.08215 13.221 4.08325 14.0001C4.08161 15.1955 4.29665 16.3813 4.71792 17.5001H8.41975C8.24893 16.3413 8.16431 15.1714 8.16658 14.0001C8.16658 13.2021 8.20392 12.4204 8.27742 11.6656L8.27625 11.6667ZM17.9631 11.6667H10.0368C9.83152 13.6096 9.88448 15.5711 10.1943 17.5001H17.8056C18.1153 15.5711 18.1682 13.6096 17.9631 11.6667ZM23.6424 11.6667H19.7248C19.7971 12.4216 19.8356 13.2032 19.8356 14.0001C19.8375 15.1714 19.7525 16.3413 19.5813 17.5001H23.2831C23.7047 16.3814 23.9201 15.1955 23.9189 14.0001C23.9189 13.1962 23.8232 12.4146 23.6424 11.6667ZM10.3599 4.76939L10.3331 4.77872C7.94498 5.7327 6.01881 7.574 4.95825 9.91672H8.51425C8.88058 7.87272 9.51758 6.09239 10.3611 4.77172L10.3599 4.76939ZM13.9999 4.07989L13.8634 4.08572C12.3899 4.22339 10.9631 6.55789 10.3016 9.91672H17.7006C17.0403 6.56839 15.6204 4.23622 14.1481 4.08922L13.9999 4.07989ZM17.6399 4.76822L17.7636 4.97239C18.5453 6.26972 19.1368 7.97305 19.4844 9.91555H23.0404C22.0276 7.68032 20.2248 5.89794 17.9783 4.91055L17.6399 4.76822Z" fill="#3F8AE0"/>
</svg>
