<svg width="28" height="29" viewBox="0 0 28 29" fill="none" xmlns="http://www.w3.org/2000/svg">
<path d="M10.7915 8.66669C11.0126 8.66647 11.2256 8.74994 11.3876 8.90033C11.5497 9.05072 11.6488 9.25687 11.665 9.47735C11.6813 9.69783 11.6135 9.91629 11.4752 10.0888C11.337 10.2613 11.1386 10.3752 10.9199 10.4074L10.7915 10.4167H8.16653C7.10414 10.4163 6.08345 10.8301 5.32113 11.57C4.55881 12.31 4.1149 13.3179 4.08362 14.3798C4.05234 15.4417 4.43617 16.474 5.15361 17.2576C5.87106 18.0411 6.86563 18.5142 7.92619 18.5764L8.16653 18.5834H10.7915C11.0126 18.5831 11.2256 18.6666 11.3876 18.817C11.5497 18.9674 11.6488 19.1735 11.665 19.394C11.6813 19.6145 11.6135 19.833 11.4752 20.0055C11.337 20.178 11.1386 20.2918 10.9199 20.324L10.7915 20.3334H8.16653C6.64365 20.3349 5.18053 19.7409 4.08976 18.6782C2.99899 17.6155 2.36706 16.1683 2.32897 14.6459C2.29089 13.1235 2.84968 11.6466 3.88595 10.5306C4.92222 9.4147 6.35381 8.74826 7.87486 8.67369L8.16653 8.66669H10.7915ZM19.8332 8.66669C21.3561 8.66511 22.8192 9.25914 23.91 10.3219C25.0007 11.3846 25.6327 12.8317 25.6707 14.3541C25.7088 15.8765 25.15 17.3535 24.1138 18.4694C23.0775 19.5854 21.6459 20.2518 20.1249 20.3264L19.8332 20.3334H17.2082C16.9871 20.3336 16.7741 20.2501 16.6121 20.0997C16.4501 19.9493 16.3509 19.7432 16.3347 19.5227C16.3184 19.3022 16.3862 19.0838 16.5245 18.9112C16.6627 18.7387 16.8611 18.6249 17.0799 18.5927L17.2082 18.5834H19.8332C20.8956 18.5837 21.9163 18.17 22.6786 17.43C23.4409 16.6901 23.8848 15.6822 23.9161 14.6202C23.9474 13.5583 23.5636 12.526 22.8461 11.7425C22.1287 10.9589 21.1341 10.4859 20.0735 10.4237L19.8332 10.4167H17.2082C16.9871 10.4169 16.7741 10.3334 16.6121 10.183C16.4501 10.0327 16.3509 9.82651 16.3347 9.60603C16.3184 9.38555 16.3862 9.16709 16.5245 8.99456C16.6627 8.82203 16.8611 8.70823 17.0799 8.67602L17.2082 8.66669H19.8332ZM8.16653 13.625H19.8332C20.0549 13.6251 20.2683 13.7093 20.4303 13.8607C20.5923 14.012 20.6908 14.2192 20.7059 14.4404C20.721 14.6616 20.6516 14.8802 20.5117 15.0522C20.3718 15.2242 20.1718 15.3366 19.9522 15.3669L19.8332 15.375H8.16653C7.94483 15.375 7.73143 15.2907 7.56944 15.1394C7.40744 14.988 7.30894 14.7808 7.29383 14.5597C7.27872 14.3385 7.34813 14.1198 7.48803 13.9478C7.62793 13.7759 7.8279 13.6634 8.04753 13.6332L8.16653 13.625H19.8332H8.16653Z" fill="#3F8AE0"/>
</svg>
