<svg width="28" height="29" viewBox="0 0 28 29" fill="none" xmlns="http://www.w3.org/2000/svg">
<path d="M18.0774 13.9166C17.7674 13.9166 17.47 14.0398 17.2508 14.259C17.0316 14.4783 16.9084 14.7756 16.9084 15.0856C16.9084 15.3957 17.0316 15.693 17.2508 15.9122C17.47 16.1315 17.7674 16.2546 18.0774 16.2546C18.3876 16.2546 18.6851 16.1314 18.9044 15.9121C19.1238 15.6927 19.247 15.3952 19.247 15.0851C19.247 14.7749 19.1238 14.4774 18.9044 14.258C18.6851 14.0387 18.3876 13.9155 18.0774 13.9155V13.9166ZM13.9964 5.57847L13.9964 13.338L5.31409 13.338L7.32309 11.3266C7.47158 11.1784 7.56187 10.9818 7.5775 10.7725C7.59314 10.5633 7.53307 10.3554 7.40825 10.1868L7.32309 10.0888C7.17479 9.94079 6.9783 9.85091 6.76934 9.83549C6.56038 9.82008 6.35283 9.88016 6.18442 10.0048L6.08642 10.0888L2.58992 13.5865C2.44173 13.7346 2.35163 13.931 2.336 14.14C2.32038 14.349 2.38025 14.5566 2.50475 14.7251L2.58992 14.8231L6.08525 18.3266C6.2414 18.4821 6.45047 18.573 6.67068 18.5811C6.8909 18.5891 7.10606 18.5138 7.27315 18.3701C7.44025 18.2265 7.54698 18.025 7.57203 17.8061C7.59707 17.5872 7.53859 17.3668 7.40825 17.1891L7.32425 17.0911L5.32575 15.088L13.9953 15.088L13.9964 22.9583C13.9965 23.086 14.0246 23.2121 14.0786 23.3278C14.1326 23.4435 14.2113 23.5459 14.3092 23.628C14.407 23.71 14.5216 23.7697 14.6449 23.8027C14.7683 23.8358 14.8973 23.8414 15.0231 23.8193L24.9398 22.0681C25.1425 22.0325 25.3261 21.9265 25.4584 21.7688C25.5907 21.6111 25.6632 21.4118 25.6631 21.206L25.6631 7.2083C25.6631 7.00092 25.5894 6.80027 25.4552 6.64215C25.321 6.48403 25.135 6.37871 24.9304 6.34497L15.0138 4.7163C14.8885 4.69565 14.7602 4.70251 14.6379 4.73639C14.5156 4.77027 14.4021 4.83036 14.3053 4.9125C14.2085 4.99464 14.1307 5.09686 14.0774 5.21206C14.024 5.32726 13.9964 5.45269 13.9964 5.57964V5.57847ZM15.7464 6.60864L23.9131 7.9503L23.9131 20.471L15.7464 21.913L15.7464 6.6098V6.60864ZM12.8298 22.0833H11.9373L11.8183 22.0751C11.6086 22.0464 11.4164 21.9425 11.2774 21.783C11.1384 21.6234 11.062 21.4188 11.0623 21.2071L11.0704 16.2488H12.8298V22.0821V22.0833ZM12.8274 12.1666L12.8298 10.6791L12.8298 6.3333H11.9606C11.7493 6.33327 11.5452 6.40969 11.3858 6.54843C11.2265 6.68717 11.1228 6.87887 11.0938 7.08814L11.0856 7.20597L11.0774 12.1666H12.8274Z" fill="#EB3737"/>
</svg>
