<svg width="40" height="40" viewBox="0 0 40 40" fill="none" xmlns="http://www.w3.org/2000/svg">
<path d="M9.50034 25.8333H30.5003C30.7977 25.8336 31.0837 25.9474 31.2999 26.1516C31.5162 26.3557 31.6463 26.6347 31.6637 26.9315C31.6811 27.2284 31.5845 27.5207 31.3937 27.7487C31.2028 27.9768 30.9321 28.1233 30.6368 28.1584L30.5003 28.1666H9.50034C9.20298 28.1663 8.91696 28.0524 8.70074 27.8483C8.48451 27.6441 8.35439 27.3651 8.33697 27.0683C8.31954 26.7714 8.41612 26.4791 8.60698 26.2511C8.79783 26.0231 9.06856 25.8765 9.36383 25.8414L9.50034 25.8333H30.5003H9.50034ZM9.50034 18.8333L30.5003 18.8309C30.7977 18.8312 31.0837 18.9451 31.2999 19.1492C31.5162 19.3534 31.6463 19.6324 31.6637 19.9292C31.6811 20.2261 31.5845 20.5184 31.3937 20.7464C31.2028 20.9744 30.9321 21.121 30.6368 21.1561L30.5003 21.1643L9.50034 21.1666C9.20298 21.1663 8.91696 21.0524 8.70074 20.8483C8.48451 20.6441 8.35439 20.3651 8.33697 20.0683C8.31954 19.7714 8.41612 19.4791 8.60698 19.2511C8.79783 19.0231 9.06856 18.8765 9.36383 18.8414L9.50034 18.8333L30.5003 18.8309L9.50034 18.8333ZM9.50034 11.8333H30.5003C30.7977 11.8336 31.0837 11.9474 31.2999 12.1516C31.5162 12.3557 31.6463 12.6347 31.6637 12.9315C31.6811 13.2284 31.5845 13.5207 31.3937 13.7487C31.2028 13.9768 30.9321 14.1233 30.6368 14.1584L30.5003 14.1666H9.50034C9.20298 14.1663 8.91696 14.0524 8.70074 13.8483C8.48451 13.6441 8.35439 13.3651 8.33697 13.0683C8.31954 12.7714 8.41612 12.4791 8.60698 12.2511C8.79783 12.0231 9.06856 11.8765 9.36383 11.8414L9.50034 11.8333H30.5003H9.50034Z" fill="#818C99"/>
</svg>
