<svg width="28" height="28" viewBox="0 0 28 28" fill="none" xmlns="http://www.w3.org/2000/svg">
<path d="M11.9584 4.95835C12.1905 4.95835 12.413 5.05054 12.5771 5.21464C12.7412 5.37873 12.8334 5.60129 12.8334 5.83335V15.1667H22.1667C22.3782 15.1667 22.5825 15.2433 22.7418 15.3822C22.9012 15.5212 23.0048 15.7132 23.0336 15.9227L23.0417 16.0417C23.0417 21.84 18.3401 25.9584 12.5417 25.9584C9.75698 25.9584 7.08626 24.8521 5.11713 22.883C3.14799 20.9138 2.04175 18.2431 2.04175 15.4584C2.04175 9.66002 6.16008 4.95835 11.9584 4.95835ZM11.0834 6.75152L10.8396 6.77952C6.53458 7.32785 3.79175 11.0052 3.79175 15.4584C3.79175 17.779 4.71362 20.0046 6.35456 21.6455C7.99551 23.2865 10.2211 24.2084 12.5417 24.2084C16.9949 24.2084 20.6711 21.4644 21.2218 17.1605L21.2474 16.9167H11.9584C11.747 16.9167 11.5427 16.8401 11.3833 16.7011C11.224 16.5621 11.1203 16.3702 11.0916 16.1607L11.0834 16.0417V6.75152ZM15.4584 2.04169C18.2432 2.04169 20.9139 3.14793 22.883 5.11707C24.8522 7.0862 25.9584 9.75691 25.9584 12.5417C25.9584 12.7738 25.8662 12.9963 25.7021 13.1604C25.538 13.3245 25.3155 13.4167 25.0834 13.4167H15.4584C15.2264 13.4167 15.0038 13.3245 14.8397 13.1604C14.6756 12.9963 14.5834 12.7738 14.5834 12.5417V2.91669C14.5834 2.68462 14.6756 2.46206 14.8397 2.29797C15.0038 2.13387 15.2264 2.04169 15.4584 2.04169ZM16.3334 3.83485V11.6667H24.1641L24.1372 11.4229C23.8893 9.50461 23.013 7.72248 21.6453 6.35479C20.2776 4.98709 18.4955 4.11084 16.5772 3.86285L16.3334 3.83485Z" fill="#3F8AE0"/>
</svg>
