<svg width="24" height="24" viewBox="0 0 24 24" fill="none" xmlns="http://www.w3.org/2000/svg">
<path d="M11.772 3.74395C12.8827 2.63912 14.3815 2.01252 15.9481 1.99806C17.5146 1.9836 19.0247 2.58243 20.1556 3.66658C21.2865 4.75073 21.9485 6.2342 22.0002 7.79998C22.0518 9.36575 21.489 10.8896 20.432 12.046L20.243 12.243L11.443 21.041L11.407 21.071C10.7219 21.6878 9.83225 22.0286 8.91032 22.0272C7.9884 22.0258 7.09978 21.6824 6.4165 21.0634C5.73322 20.4445 5.30389 19.5941 5.21162 18.6768C5.11935 17.7595 5.37071 16.8406 5.91704 16.098C5.94086 16.0518 5.96934 16.0083 6.00204 15.968L6.05604 15.908L6.14304 15.82L6.28404 15.672L6.28704 15.675L13.723 8.22095C13.8499 8.09379 14.0182 8.01637 14.1973 8.00279C14.3764 7.98921 14.5545 8.04037 14.699 8.14696L14.783 8.21996C14.9102 8.34682 14.9876 8.51511 15.0012 8.69422C15.0148 8.87333 14.9636 9.05137 14.857 9.19596L14.785 9.27995L7.19004 16.893C6.83852 17.3242 6.66093 17.8714 6.69213 18.4269C6.72334 18.9824 6.96108 19.5062 7.35869 19.8954C7.75629 20.2846 8.28503 20.5111 8.84108 20.5305C9.39714 20.5498 9.94034 20.3606 10.364 20L19.197 11.17C20.0155 10.3375 20.4786 9.21964 20.4886 8.05225C20.4986 6.88487 20.0547 5.75924 19.2507 4.91287C18.4466 4.0665 17.3452 3.56557 16.1788 3.51577C15.0124 3.46597 13.8723 3.8712 12.999 4.64595L12.831 4.80596L12.819 4.81996L3.28204 14.356C3.14821 14.4901 2.96855 14.5687 2.77916 14.5758C2.58978 14.5829 2.40472 14.5181 2.26119 14.3943C2.11767 14.2706 2.02632 14.0971 2.00551 13.9087C1.98471 13.7203 2.03598 13.5311 2.14904 13.379L2.22204 13.295L11.771 3.74495H11.772V3.74395Z" fill="#818C99"/>
</svg>
