<svg width="20" height="20" viewBox="0 0 20 20" fill="none" xmlns="http://www.w3.org/2000/svg">
<path d="M10.122 3.13692C10.2637 2.85347 10.4707 2.60775 10.726 2.42001C10.9813 2.23227 11.2776 2.10788 11.5904 2.0571C11.9032 2.00631 12.2236 2.03059 12.5252 2.12792C12.8268 2.22525 13.1009 2.39286 13.325 2.61692L17.382 6.67392C17.6061 6.89802 17.7737 7.17216 17.871 7.47374C17.9683 7.77532 17.9926 8.09571 17.9418 8.40852C17.891 8.72132 17.7667 9.01758 17.5789 9.27288C17.3912 9.52818 17.1455 9.73521 16.862 9.87692L13.404 11.6069C13.0755 11.7711 12.8186 12.05 12.682 12.3909L11.246 15.9809C11.1846 16.1347 11.086 16.2708 10.959 16.377C10.832 16.4832 10.6807 16.5563 10.5185 16.5896C10.3563 16.6229 10.1884 16.6154 10.0299 16.5678C9.8713 16.5202 9.72703 16.434 9.61 16.3169L7 13.7069L3.707 16.9989H3V16.2919L6.293 12.9999L3.683 10.3899C3.56587 10.273 3.47961 10.1288 3.43195 9.97024C3.38429 9.81173 3.37673 9.64386 3.40993 9.48171C3.44314 9.31955 3.51607 9.16817 3.6222 9.04114C3.72833 8.91412 3.86433 8.81543 4.018 8.75392L7.608 7.31792C7.94911 7.18179 8.22842 6.92525 8.393 6.59692L10.123 3.13792L10.122 3.13692ZM12.618 3.32392C12.5059 3.21199 12.3689 3.12828 12.2182 3.07967C12.0674 3.03107 11.9073 3.01896 11.751 3.04435C11.5947 3.06974 11.4466 3.13189 11.319 3.2257C11.1914 3.31951 11.0879 3.44229 11.017 3.58392L9.287 7.04292C9.01329 7.5904 8.54824 8.01844 7.98 8.24592L4.39 9.68192L10.317 15.6099L11.753 12.0199C11.9805 11.4511 12.409 10.9857 12.957 10.7119L16.415 8.98192C16.5565 8.91101 16.6791 8.80753 16.7727 8.68001C16.8664 8.55249 16.9285 8.40455 16.9539 8.24836C16.9793 8.09218 16.9672 7.9322 16.9187 7.78157C16.8703 7.63095 16.7867 7.49398 16.675 7.38192L12.618 3.32392Z" fill="#67707A"/>
</svg>
