<svg width="28" height="29" viewBox="0 0 28 29" fill="none" xmlns="http://www.w3.org/2000/svg">
<path d="M13.1996 4.6146C13.3154 4.60716 13.4286 4.57675 13.5326 4.52513C13.6366 4.47351 13.7293 4.40172 13.8052 4.31393C13.8812 4.22615 13.9389 4.12413 13.975 4.01381C14.0112 3.9035 14.025 3.7871 14.0157 3.67139C14.0064 3.55567 13.9742 3.44297 13.9209 3.33983C13.8677 3.23669 13.7944 3.14519 13.7054 3.07064C13.6164 2.9961 13.5135 2.94001 13.4026 2.90563C13.2917 2.87126 13.1751 2.85929 13.0596 2.87043C7.05709 3.34876 2.33325 8.37243 2.33325 14.4998C2.33325 20.9433 7.55642 26.1664 13.9999 26.1664C20.1238 26.1664 25.1451 21.4484 25.6281 15.4494C25.6392 15.3339 25.6273 15.2173 25.5929 15.1064C25.5585 14.9955 25.5024 14.8926 25.4279 14.8036C25.3533 14.7146 25.2618 14.6413 25.1587 14.5881C25.0555 14.5348 24.9428 14.5026 24.8271 14.4933C24.7114 14.484 24.595 14.4978 24.4847 14.534C24.3744 14.5701 24.2724 14.6278 24.1846 14.7038C24.0968 14.7798 24.025 14.8724 23.9734 14.9764C23.9218 15.0804 23.8914 15.1936 23.8839 15.3094C23.7292 17.1958 23.0379 18.9985 21.8917 20.5046C20.7454 22.0107 19.1921 23.1573 17.4152 23.8091C15.6382 24.4608 13.7119 24.5904 11.8637 24.1826C10.0154 23.7748 8.32252 22.8466 6.98485 21.5076C5.64717 20.1686 4.72062 18.4748 4.31461 16.6261C3.90861 14.7775 4.04011 12.8513 4.69359 11.075C5.34707 9.29869 6.49523 7.7465 8.00247 6.60174C9.50972 5.45697 11.3131 4.76745 13.1996 4.6146ZM20.6464 5.95276C20.7241 5.86801 20.8177 5.79938 20.9219 5.75081C21.026 5.70224 21.1388 5.67468 21.2536 5.66969C21.3685 5.66471 21.4832 5.6824 21.5912 5.72177C21.6992 5.76113 21.7984 5.82139 21.8831 5.8991C22.1328 6.12776 22.3731 6.3681 22.6017 6.61893C22.749 6.79135 22.8235 7.01418 22.8097 7.24047C22.7958 7.46677 22.6947 7.67885 22.5276 7.83206C22.3605 7.98526 22.1404 8.06762 21.9138 8.06178C21.6871 8.05594 21.4716 7.96237 21.3126 7.80076C21.1174 7.58783 20.913 7.38347 20.7001 7.18826C20.6153 7.11061 20.5467 7.01701 20.4981 6.91282C20.4496 6.80863 20.422 6.6959 20.417 6.58105C20.412 6.4662 20.4297 6.3515 20.4691 6.2435C20.5084 6.13549 20.5687 6.03747 20.6464 5.95276ZM13.1249 7.49976C13.3364 7.49977 13.5407 7.57635 13.7 7.71533C13.8594 7.8543 13.963 8.04628 13.9918 8.25576L13.9999 8.37476V14.4998H17.7916C18.0133 14.4998 18.2267 14.5841 18.3887 14.7354C18.5507 14.8867 18.6492 15.0939 18.6643 15.3151C18.6794 15.5363 18.61 15.755 18.4701 15.9269C18.3302 16.0989 18.1302 16.2114 17.9106 16.2416L17.7916 16.2498H13.1249C12.9133 16.2497 12.7089 16.173 12.5495 16.0338C12.3901 15.8945 12.2866 15.7023 12.2581 15.4926L12.2499 15.3748V8.37476C12.2499 8.1427 12.3421 7.92014 12.5062 7.75605C12.6703 7.59195 12.8929 7.49976 13.1249 7.49976ZM16.0778 3.87143C16.1087 3.76071 16.1612 3.65718 16.2322 3.56675C16.3033 3.47633 16.3914 3.40079 16.4916 3.34445C16.5918 3.28811 16.7022 3.25207 16.8163 3.2384C16.9305 3.22473 17.0462 3.23368 17.1569 3.26476C17.5825 3.3846 18.0008 3.52873 18.4099 3.69643C18.5196 3.73748 18.6199 3.80013 18.7049 3.88065C18.7899 3.96117 18.8578 4.05793 18.9048 4.1652C18.9517 4.27247 18.9766 4.38806 18.9781 4.50514C18.9795 4.62221 18.9574 4.73839 18.9131 4.84678C18.8689 4.95516 18.8033 5.05357 18.7203 5.13615C18.6373 5.21873 18.5386 5.28382 18.4299 5.32755C18.3213 5.37128 18.2051 5.39277 18.088 5.39075C17.9709 5.38872 17.8555 5.36323 17.7484 5.31576C17.4011 5.17354 17.0459 5.05161 16.6844 4.9506C16.5737 4.91962 16.4702 4.86712 16.3797 4.79611C16.2893 4.7251 16.2138 4.63696 16.1574 4.53674C16.1011 4.43652 16.0651 4.32617 16.0514 4.21201C16.0377 4.09786 16.0467 3.98212 16.0778 3.87143ZM24.8021 10.0839C24.7586 9.97753 24.6945 9.88074 24.6136 9.79908C24.5327 9.71743 24.4365 9.65251 24.3305 9.60804C24.2245 9.56357 24.1107 9.54041 23.9958 9.53989C23.8808 9.53937 23.7669 9.5615 23.6605 9.60501C23.5541 9.64853 23.4573 9.71257 23.3757 9.79349C23.294 9.8744 23.2291 9.97061 23.1846 10.0766C23.1401 10.1826 23.117 10.2964 23.1165 10.4113C23.1159 10.5263 23.1381 10.6402 23.1816 10.7466C23.3245 11.0951 23.4472 11.4515 23.5491 11.8141C23.5783 11.9267 23.6297 12.0323 23.7003 12.1248C23.7708 12.2173 23.8591 12.2948 23.96 12.3528C24.0608 12.4107 24.1723 12.448 24.2877 12.4624C24.4031 12.4768 24.5203 12.468 24.6323 12.4366C24.7443 12.4052 24.8489 12.3518 24.94 12.2794C25.0311 12.2071 25.1069 12.1173 25.1629 12.0154C25.2189 11.9134 25.254 11.8013 25.2662 11.6856C25.2783 11.5699 25.2673 11.453 25.2338 11.3416C25.1141 10.9144 24.97 10.4945 24.8021 10.0839Z" fill="#3F8AE0"/>
</svg>
