<svg width="20" height="20" viewBox="0 0 20 20" fill="none" xmlns="http://www.w3.org/2000/svg">
<path d="M3.70694 9.00005L7.09694 12.3901C7.18519 12.4784 7.23718 12.5966 7.24269 12.7213C7.24819 12.8461 7.20682 12.9684 7.12671 13.0642C7.04659 13.16 6.93353 13.2223 6.80977 13.2389C6.68601 13.2556 6.5605 13.2253 6.45794 13.1541L6.38894 13.0971L2.14594 8.85405C2.06326 8.77119 2.01228 8.66196 2.00186 8.54538C1.99145 8.42879 2.02226 8.31225 2.08894 8.21605L2.14594 8.14605L6.38994 3.90505C6.47813 3.81647 6.5963 3.76413 6.72116 3.75835C6.84603 3.75257 6.96853 3.79377 7.06452 3.87383C7.16052 3.95388 7.22304 4.067 7.23978 4.19087C7.25652 4.31474 7.22625 4.44039 7.15494 4.54305L7.09694 4.61305L3.70694 8.00005H9.99994C11.9471 8.00008 13.818 8.75741 15.2169 10.1119C16.6158 11.4664 17.4331 13.3119 17.4959 15.2581L17.4999 15.5011C17.4999 15.6337 17.4473 15.7608 17.3535 15.8546C17.2597 15.9484 17.1325 16.001 16.9999 16.001C16.8673 16.001 16.7402 15.9484 16.6464 15.8546C16.5526 15.7608 16.4999 15.6337 16.4999 15.5011C16.5 13.8175 15.8468 12.1995 14.6778 10.9879C13.5089 9.77623 11.9155 9.0654 10.2329 9.00505L9.99994 9.00005H3.70694L7.09694 12.3901L3.70594 9.00005H3.70694Z" fill="#67707A"/>
</svg>
