<svg width="20" height="20" viewBox="0 0 20 20" fill="none" xmlns="http://www.w3.org/2000/svg">
<path d="M4.00049 4.49976C4.00049 3.83671 4.26388 3.20083 4.73272 2.73199C5.20156 2.26315 5.83745 1.99976 6.50049 1.99976H13.5005C14.1635 1.99976 14.7994 2.26315 15.2683 2.73199C15.7371 3.20083 16.0005 3.83671 16.0005 4.49976V17.4998C16.0004 17.5919 15.9748 17.6823 15.9266 17.7609C15.8784 17.8394 15.8094 17.9032 15.7272 17.945C15.6451 17.9868 15.553 18.005 15.4611 17.9978C15.3692 17.9905 15.2811 17.958 15.2065 17.9038L10.0005 14.1178L4.79449 17.9038C4.71992 17.958 4.63182 17.9905 4.53992 17.9978C4.44803 18.005 4.35591 17.9868 4.27374 17.945C4.19158 17.9032 4.12258 17.8394 4.07435 17.7609C4.02613 17.6823 4.00057 17.5919 4.00049 17.4998V4.49976Z" fill="white"/>
</svg>
