<svg width="20" height="20" viewBox="0 0 20 20" fill="none" xmlns="http://www.w3.org/2000/svg">
<path d="M8.49955 3C9.52344 2.99994 10.527 3.28568 11.3973 3.82507C12.2676 4.36447 12.9701 5.13608 13.4256 6.05306C13.8811 6.97004 14.0716 7.99597 13.9757 9.01536C13.8798 10.0347 13.5012 11.0071 12.8825 11.823L17.0295 15.97C17.1625 16.104 17.24 16.2832 17.2467 16.4719C17.2533 16.6605 17.1886 16.8447 17.0654 16.9878C16.9422 17.1308 16.7696 17.2221 16.582 17.2434C16.3945 17.2648 16.2058 17.2147 16.0535 17.103L15.9695 17.03L11.8225 12.883C11.1271 13.4102 10.3162 13.7643 9.45687 13.9161C8.59752 14.0679 7.71438 14.0131 6.88041 13.7561C6.04645 13.4992 5.2856 13.0474 4.66073 12.4383C4.03586 11.8291 3.56491 11.08 3.2868 10.2529C3.00868 9.4257 2.93138 8.54424 3.06128 7.6813C3.19117 6.81837 3.52455 5.99872 4.03385 5.2901C4.54315 4.58148 5.21375 4.00421 5.99026 3.606C6.76677 3.20779 7.62689 3.00007 8.49955 3ZM8.49955 4.5C7.43868 4.5 6.42126 4.92143 5.67112 5.67157C4.92097 6.42172 4.49955 7.43913 4.49955 8.5C4.49955 9.56087 4.92097 10.5783 5.67112 11.3284C6.42126 12.0786 7.43868 12.5 8.49955 12.5C9.56041 12.5 10.5778 12.0786 11.328 11.3284C12.0781 10.5783 12.4995 9.56087 12.4995 8.5C12.4995 7.43913 12.0781 6.42172 11.328 5.67157C10.5778 4.92143 9.56041 4.5 8.49955 4.5Z" fill="#818C99" fill-opacity="0.8"/>
</svg>
