<svg width="24" height="24" viewBox="0 0 24 24" fill="none" xmlns="http://www.w3.org/2000/svg">
<path d="M3.24883 2.37674L21.3088 11.0142C21.4914 11.1013 21.6455 11.2384 21.7534 11.4095C21.8613 11.5806 21.9186 11.7787 21.9186 11.981C21.9186 12.1833 21.8613 12.3815 21.7534 12.5526C21.6455 12.7237 21.4914 12.8607 21.3088 12.9479L3.24883 21.5853C3.06369 21.674 2.85697 21.7076 2.65327 21.6822C2.44957 21.6568 2.25746 21.5733 2.0998 21.4419C1.94214 21.3104 1.82557 21.1364 1.76396 20.9406C1.70235 20.7448 1.69829 20.5354 1.75226 20.3373L3.55912 13.7133C3.58123 13.6321 3.62676 13.5593 3.69001 13.5038C3.75327 13.4483 3.83146 13.4127 3.91483 13.4013L12.6663 12.2125C12.7028 12.2073 12.7375 12.1927 12.7667 12.1702C12.796 12.1476 12.819 12.1179 12.8334 12.0839L12.8488 12.0307C12.8556 11.9829 12.846 11.9342 12.8215 11.8924C12.7971 11.8507 12.7593 11.8185 12.7143 11.801L12.6671 11.7882L3.92426 10.5993C3.84104 10.5878 3.76304 10.5521 3.69995 10.4966C3.63686 10.4412 3.59146 10.3684 3.5694 10.2873L1.75226 3.6256C1.69807 3.42748 1.70196 3.21796 1.76348 3.022C1.825 2.82603 1.94156 2.65188 2.09926 2.52028C2.25695 2.38869 2.44916 2.30519 2.65297 2.27974C2.85678 2.25429 3.06361 2.28796 3.24883 2.37674Z" fill="white"/>
</svg>
