<svg width="28" height="28" viewBox="0 0 28 28" fill="none" xmlns="http://www.w3.org/2000/svg">
<path d="M9.63081 10.5C10.759 10.5 11.6725 11.4135 11.6725 12.5416V23.625C11.6725 24.1665 11.4574 24.6858 11.0745 25.0687C10.6916 25.4515 10.1723 25.6666 9.63081 25.6666H4.37614C3.83466 25.6666 3.31535 25.4515 2.93246 25.0687C2.54958 24.6858 2.33447 24.1665 2.33447 23.625V12.5416C2.33447 11.4135 3.24797 10.5 4.37614 10.5H9.63081ZM9.63081 12.25H4.37614C4.29878 12.25 4.2246 12.2807 4.1699 12.3354C4.1152 12.3901 4.08447 12.4643 4.08447 12.5416V23.625C4.08447 23.786 4.21514 23.9166 4.37614 23.9166H9.63081C9.70816 23.9166 9.78235 23.8859 9.83705 23.8312C9.89174 23.7765 9.92247 23.7023 9.92247 23.625V12.5416C9.92247 12.4643 9.89174 12.3901 9.83705 12.3354C9.78235 12.2807 9.70816 12.25 9.63081 12.25ZM7.29164 21C7.51333 21 7.72674 21.0843 7.88873 21.2356C8.05072 21.387 8.14923 21.5942 8.16434 21.8153C8.17945 22.0365 8.11004 22.2552 7.97013 22.4272C7.83023 22.5991 7.63026 22.7116 7.41064 22.7418L7.29164 22.75H6.70831C6.48671 22.7496 6.27351 22.6652 6.11174 22.5138C5.94997 22.3623 5.85168 22.1551 5.83673 21.934C5.82177 21.7129 5.89126 21.4944 6.03116 21.3226C6.17105 21.1507 6.37095 21.0383 6.59047 21.0081L6.70831 21H7.29164ZM23.0416 2.33331C23.7068 2.33323 24.3472 2.58566 24.8334 3.03958C25.3195 3.4935 25.6153 4.11506 25.6608 4.77865L25.6666 4.95831V15.4583C25.6667 16.1235 25.4143 16.7638 24.9604 17.25C24.5065 17.7362 23.8849 18.032 23.2213 18.0775L23.0416 18.0833H18.6713V20.4166H20.125C20.3467 20.4167 20.5601 20.5009 20.7221 20.6523C20.8841 20.8036 20.9826 21.0108 20.9977 21.232C21.0128 21.4532 20.9434 21.6719 20.8035 21.8438C20.6636 22.0158 20.4636 22.1283 20.244 22.1585L20.125 22.1666H12.8333V20.4166H16.9213V18.0833H12.8333V16.3333H23.0416C23.2533 16.3336 23.4579 16.2571 23.6175 16.1181C23.777 15.9791 23.8809 15.787 23.9096 15.5773L23.9166 15.4583V4.95831C23.9166 4.72625 23.8245 4.50369 23.6604 4.33959C23.4963 4.1755 23.2737 4.08331 23.0416 4.08331H7.29164C7.0802 4.08332 6.87591 4.1599 6.71655 4.29887C6.5572 4.43785 6.45356 4.62983 6.42481 4.83931L6.41664 4.95831V9.33331H4.66664V4.95831C4.66656 4.29317 4.91898 3.65279 5.3729 3.1666C5.82682 2.68041 6.44839 2.38467 7.11197 2.33915L7.29164 2.33331H23.0416Z" fill="#3F8AE0"/>
</svg>
