<svg width="20" height="20" viewBox="0 0 20 20" fill="none" xmlns="http://www.w3.org/2000/svg">
<path d="M1.90981 7.38342C2.27901 6.24258 2.88566 5.19288 3.68981 4.30342C3.75631 4.22993 3.84314 4.17786 3.93929 4.15383C4.03544 4.12979 4.13656 4.13487 4.22981 4.16842L6.14781 4.85442C6.28436 4.90317 6.42987 4.92166 6.57426 4.90859C6.71866 4.89551 6.85849 4.8512 6.98405 4.77871C7.10962 4.70623 7.21792 4.6073 7.30145 4.4888C7.38499 4.37029 7.44175 4.23504 7.46781 4.09242L7.83381 2.08642C7.85149 1.98877 7.89783 1.89858 7.96692 1.82735C8.03602 1.75612 8.12475 1.70706 8.22181 1.68642C9.39367 1.4368 10.605 1.4368 11.7768 1.68642C11.8737 1.70724 11.9622 1.75637 12.0311 1.82759C12.1 1.89881 12.1462 1.9889 12.1638 2.08642L12.5308 4.09242C12.5569 4.23504 12.6136 4.37029 12.6972 4.4888C12.7807 4.6073 12.889 4.70623 13.0146 4.77871C13.1401 4.8512 13.28 4.89551 13.4244 4.90859C13.5688 4.92166 13.7143 4.90317 13.8508 4.85442L15.7688 4.16842C15.8622 4.13499 15.9633 4.13007 16.0595 4.15428C16.1557 4.1785 16.2424 4.23076 16.3088 4.30442C17.1128 5.19359 17.7195 6.24294 18.0888 7.38342C18.1193 7.47762 18.1211 7.57876 18.0941 7.674C18.067 7.76925 18.0123 7.85431 17.9368 7.91842L16.3818 9.23842C16.2713 9.33229 16.1826 9.44907 16.1218 9.58064C16.0609 9.71222 16.0294 9.85545 16.0294 10.0004C16.0294 10.1454 16.0609 10.2886 16.1218 10.4202C16.1826 10.5518 16.2713 10.6685 16.3818 10.7624L17.9368 12.0824C18.0123 12.1465 18.067 12.2316 18.0941 12.3268C18.1211 12.4221 18.1193 12.5232 18.0888 12.6174C17.7196 13.7583 17.113 14.808 16.3088 15.6974C16.2423 15.7709 16.1555 15.823 16.0593 15.847C15.9632 15.871 15.8621 15.866 15.7688 15.8324L13.8508 15.1464C13.7143 15.0977 13.5688 15.0792 13.4244 15.0922C13.28 15.1053 13.1401 15.1496 13.0146 15.2221C12.889 15.2946 12.7807 15.3935 12.6972 15.512C12.6136 15.6305 12.5569 15.7658 12.5308 15.9084L12.1638 17.9154C12.146 18.0128 12.0998 18.1026 12.0309 18.1736C11.962 18.2447 11.8736 18.2937 11.7768 18.3144C10.605 18.5641 9.39366 18.5641 8.22181 18.3144C8.12475 18.2938 8.03602 18.2447 7.96692 18.1735C7.89783 18.1022 7.85149 18.0121 7.83381 17.9144L7.46881 15.9084C7.44275 15.7658 7.38599 15.6305 7.30245 15.512C7.21892 15.3935 7.11062 15.2946 6.98505 15.2221C6.85949 15.1496 6.71966 15.1053 6.57526 15.0922C6.43087 15.0792 6.28536 15.0977 6.14881 15.1464L4.22981 15.8324C4.13646 15.8658 4.03528 15.8708 3.93913 15.8465C3.84298 15.8223 3.75619 15.7701 3.68981 15.6964C2.88576 14.8073 2.27911 13.7579 1.90981 12.6174C1.87944 12.5231 1.87777 12.4219 1.90501 12.3267C1.93225 12.2314 1.98718 12.1464 2.06281 12.0824L3.61681 10.7624C3.72728 10.6685 3.81601 10.5518 3.87686 10.4202C3.93772 10.2886 3.96924 10.1454 3.96924 10.0004C3.96924 9.85545 3.93772 9.71222 3.87686 9.58064C3.81601 9.44907 3.72728 9.33229 3.61681 9.23842L2.06281 7.91842C1.98718 7.85443 1.93225 7.76942 1.90501 7.67417C1.87777 7.57891 1.87944 7.47772 1.90981 7.38342ZM7.99981 10.0004C7.99981 10.5308 8.21053 11.0396 8.5856 11.4146C8.96067 11.7897 9.46938 12.0004 9.99981 12.0004C10.5302 12.0004 11.039 11.7897 11.414 11.4146C11.7891 11.0396 11.9998 10.5308 11.9998 10.0004C11.9998 9.46998 11.7891 8.96128 11.414 8.5862C11.039 8.21113 10.5302 8.00042 9.99981 8.00042C9.46938 8.00042 8.96067 8.21113 8.5856 8.5862C8.21053 8.96128 7.99981 9.46998 7.99981 10.0004Z" fill="white"/>
</svg>
