<svg width="28" height="28" viewBox="0 0 28 28" fill="none" xmlns="http://www.w3.org/2000/svg">
<path d="M7.87158 4.66666H11.9129C12.1346 4.66673 12.348 4.75095 12.51 4.9023C12.672 5.05365 12.7705 5.26084 12.7856 5.48202C12.8007 5.7032 12.7313 5.92187 12.5914 6.09384C12.4515 6.26582 12.2515 6.37828 12.0319 6.4085L11.9129 6.41666H7.87158C7.20662 6.41656 6.5664 6.66882 6.08025 7.1225C5.59409 7.57618 5.29822 8.19745 5.25242 8.86083L5.24658 9.04166V20.125C5.2468 20.7899 5.49935 21.43 5.95324 21.916C6.40713 22.4019 7.02853 22.6975 7.69192 22.743L7.87158 22.75H18.9549C19.6201 22.7501 20.2604 22.4977 20.7466 22.0437C21.2328 21.5898 21.5286 20.9682 21.5741 20.3047L21.5799 20.125V19.544C21.5776 19.3207 21.6608 19.105 21.8124 18.9411C21.964 18.7771 22.1725 18.6773 22.3953 18.6621C22.618 18.6469 22.8382 18.7175 23.0106 18.8593C23.1831 19.0011 23.2948 19.2035 23.3229 19.425L23.3299 19.544V20.125C23.3297 21.2448 22.9001 22.3219 22.1297 23.1345C21.3592 23.9471 20.3064 24.4333 19.1882 24.493L18.9549 24.5H7.87158C6.75139 24.5001 5.67385 24.0705 4.86098 23.2997C4.04811 22.529 3.56186 21.4758 3.50242 20.3572L3.49658 20.1238V9.0405C3.49678 7.9207 3.92635 6.84361 4.69683 6.03102C5.46731 5.21843 6.52005 4.73222 7.63825 4.6725L7.87158 4.66666H11.9129H7.87158ZM16.9167 7.60666V4.375C16.9166 4.21405 16.9609 4.05619 17.0448 3.91879C17.1286 3.78139 17.2487 3.66977 17.3918 3.5962C17.535 3.52264 17.6956 3.48998 17.8561 3.50182C18.0166 3.51367 18.1708 3.56955 18.3016 3.66333L18.3972 3.74266L25.3902 10.451C25.7169 10.7648 25.7472 11.2677 25.4801 11.6153L25.3902 11.7145L18.3972 18.4252C18.2811 18.5367 18.1365 18.614 17.9792 18.6486C17.822 18.6832 17.6582 18.6738 17.506 18.6213C17.3538 18.5688 17.219 18.4754 17.1165 18.3512C17.0139 18.2271 16.9477 18.0771 16.9249 17.9177L16.9167 17.7928V14.6137L16.5154 14.6487C13.7154 14.9403 11.0321 16.2015 8.44908 18.452C7.84242 18.9805 6.90558 18.4812 7.00592 17.6843C7.78058 11.4777 11.0262 8.05816 16.5667 7.62883L16.9167 7.6055V4.375V7.60666ZM18.6667 6.42483V8.45833C18.6667 8.69039 18.5746 8.91295 18.4105 9.07705C18.2464 9.24114 18.0238 9.33333 17.7917 9.33333C13.2721 9.33333 10.4721 11.2887 9.26108 15.3498L9.16892 15.6742L9.57958 15.3977C12.1917 13.6932 14.9311 12.8333 17.7929 12.8333C18.0045 12.8334 18.209 12.9101 18.3683 13.0493C18.5277 13.1885 18.6313 13.3808 18.6597 13.5905L18.6679 13.7083V15.7418L23.5201 11.0833L18.6667 6.426V6.42483Z" fill="#3F8AE0"/>
</svg>
