<svg width="48" height="48" viewBox="0 0 48 48" fill="none" xmlns="http://www.w3.org/2000/svg">
<rect width="48" height="48" rx="24" fill="white"/>
<path d="M16.25 15.5C15.388 15.5 14.5614 15.8424 13.9519 16.4519C13.3424 17.0614 13 17.888 13 18.75V29.25C13 30.112 13.3424 30.9386 13.9519 31.5481C14.5614 32.1576 15.388 32.5 16.25 32.5H25.75C26.612 32.5 27.4386 32.1576 28.0481 31.5481C28.6576 30.9386 29 30.112 29 29.25V18.75C29 17.888 28.6576 17.0614 28.0481 16.4519C27.4386 15.8424 26.612 15.5 25.75 15.5H16.25ZM34.123 30.643L30.5 27.093V21L34.112 17.372C34.899 16.582 36.248 17.139 36.248 18.254V29.75C36.248 30.858 34.914 31.418 34.123 30.643Z" fill="#3F8AE0"/>
</svg>
