<svg width="28" height="28" viewBox="0 0 28 28" fill="none" xmlns="http://www.w3.org/2000/svg">
<path d="M16.0418 5.25C17.0474 5.25 18.0119 5.64948 18.7229 6.36055C19.434 7.07163 19.8335 8.03605 19.8335 9.04167V9.2435L24.3415 6.53917C24.4743 6.45947 24.6258 6.41643 24.7806 6.41445C24.9355 6.41248 25.0881 6.45162 25.2228 6.5279C25.3576 6.60418 25.4697 6.71486 25.5477 6.84863C25.6257 6.9824 25.6668 7.13448 25.6668 7.28933V20.7083C25.6668 20.8632 25.6257 21.0153 25.5477 21.149C25.4697 21.2828 25.3576 21.3935 25.2228 21.4698C25.0881 21.546 24.9355 21.5852 24.7806 21.5832C24.6258 21.5812 24.4743 21.5382 24.3415 21.4585L19.8335 18.7542V18.9583C19.8335 19.9639 19.434 20.9284 18.7229 21.6394C18.0119 22.3505 17.0474 22.75 16.0418 22.75H6.12516C5.11955 22.75 4.15512 22.3505 3.44405 21.6394C2.73297 20.9284 2.3335 19.9639 2.3335 18.9583V9.04167C2.3335 8.03605 2.73297 7.07163 3.44405 6.36055C4.15512 5.64948 5.11955 5.25 6.12516 5.25H16.0418ZM16.0418 7H6.12516C5.58368 7 5.06437 7.2151 4.68149 7.59799C4.2986 7.98088 4.0835 8.50018 4.0835 9.04167V18.9583C4.0835 20.0853 4.99816 21 6.12516 21H16.0418C16.5833 21 17.1026 20.7849 17.4855 20.402C17.8684 20.0191 18.0835 19.4998 18.0835 18.9583V9.04167C18.0835 8.50018 17.8684 7.98088 17.4855 7.59799C17.1026 7.2151 16.5833 7 16.0418 7ZM23.9168 8.83517L19.8335 11.2863V16.7125L23.9168 19.1625V8.83517Z" fill="#3F8AE0"/>
</svg>
