<svg width="28" height="29" viewBox="0 0 28 29" fill="none" xmlns="http://www.w3.org/2000/svg">
<path d="M21.2918 13.3333C21.5033 13.3333 21.7076 13.4099 21.8669 13.5489C22.0263 13.6879 22.1299 13.8798 22.1587 14.0893L22.1668 14.2083V14.7916C22.167 16.7792 21.4157 18.6933 20.0635 20.1499C18.7113 21.6066 16.8584 22.4981 14.8763 22.6456L14.8752 25.2916C14.8751 25.5133 14.7909 25.7267 14.6395 25.8887C14.4882 26.0507 14.281 26.1492 14.0598 26.1643C13.8386 26.1795 13.62 26.11 13.448 25.9701C13.276 25.8302 13.1635 25.6303 13.1333 25.4106L13.1252 25.2916V22.6456C11.1903 22.502 9.37651 21.649 8.03174 20.2504C6.68697 18.8518 5.90585 17.006 5.83816 15.067L5.8335 14.7916V14.2083C5.83356 13.9866 5.91778 13.7732 6.06913 13.6112C6.22048 13.4492 6.42768 13.3507 6.64886 13.3356C6.87003 13.3205 7.0887 13.3899 7.26068 13.5298C7.43265 13.6697 7.54511 13.8697 7.57533 14.0893L7.5835 14.2083V14.7916C7.58336 16.3726 8.1945 17.8923 9.28909 19.033C10.3837 20.1737 11.8769 20.8469 13.4565 20.912L13.7085 20.9166H14.2918C15.8727 20.9168 17.3925 20.3056 18.5332 19.2111C19.6738 18.1165 20.3471 16.6232 20.4122 15.0436L20.4168 14.7916V14.2083C20.4168 13.9762 20.509 13.7537 20.6731 13.5896C20.8372 13.4255 21.0598 13.3333 21.2918 13.3333ZM14.0002 2.83331C15.2378 2.83331 16.4248 3.32498 17.3 4.20015C18.1752 5.07532 18.6668 6.2623 18.6668 7.49998V14.5C18.6668 15.7377 18.1752 16.9246 17.3 17.7998C16.4248 18.675 15.2378 19.1666 14.0002 19.1666C12.7625 19.1666 11.5755 18.675 10.7003 17.7998C9.82516 16.9246 9.3335 15.7377 9.3335 14.5V7.49998C9.3335 6.2623 9.82516 5.07532 10.7003 4.20015C11.5755 3.32498 12.7625 2.83331 14.0002 2.83331ZM14.0002 4.58331C13.2266 4.58331 12.4847 4.8906 11.9378 5.43758C11.3908 5.98457 11.0835 6.72643 11.0835 7.49998V14.5C11.0835 15.2735 11.3908 16.0154 11.9378 16.5624C12.4847 17.1094 13.2266 17.4166 14.0002 17.4166C14.7737 17.4166 15.5156 17.1094 16.0626 16.5624C16.6095 16.0154 16.9168 15.2735 16.9168 14.5V7.49998C16.9168 6.72643 16.6095 5.98457 16.0626 5.43758C15.5156 4.8906 14.7737 4.58331 14.0002 4.58331Z" fill="#3F8AE0"/>
</svg>
